<svg width="19" height="20" viewBox="0 0 19 20" fill="none" xmlns="http://www.w3.org/2000/svg">
<path d="M12.7357 9.52993L11.9938 9.63994L12.7357 9.52993ZM9.91937 6.71357L9.80935 7.45546L9.91937 6.71357ZM5.21434 2.44907H13.5715V0.949066H5.21434V2.44907ZM13.5715 2.44907C15.465 2.44907 17.0001 3.98409 17.0001 5.87764H18.5001C18.5001 3.15566 16.2935 0.949066 13.5715 0.949066V2.44907ZM17.0001 5.87764V14.2348H18.5001V5.87764H17.0001ZM17.0001 14.2348C17.0001 16.1283 15.465 17.6634 13.5715 17.6634V19.1634C16.2935 19.1634 18.5001 16.9568 18.5001 14.2348H17.0001ZM13.5715 17.6634H5.21434V19.1634H13.5715V17.6634ZM5.21434 17.6634C3.32079 17.6634 1.78577 16.1283 1.78577 14.2348H0.285767C0.285767 16.9568 2.49236 19.1634 5.21434 19.1634V17.6634ZM1.78577 14.2348V5.87764H0.285767V14.2348H1.78577ZM1.78577 5.87764C1.78577 3.98409 3.32079 2.44907 5.21434 2.44907V0.949066C2.49236 0.949066 0.285767 3.15566 0.285767 5.87764H1.78577ZM11.9938 9.63994C12.0738 10.1794 11.9817 10.7304 11.7305 11.2145L13.0619 11.9053C13.4584 11.1412 13.6039 10.2715 13.4776 9.41991L11.9938 9.63994ZM11.7305 11.2145C11.4793 11.6985 11.0819 12.0911 10.5947 12.3363L11.2691 13.6762C12.0381 13.2891 12.6654 12.6695 13.0619 11.9053L11.7305 11.2145ZM10.5947 12.3363C10.1076 12.5815 9.55554 12.6668 9.0171 12.5802L8.77879 14.0611C9.62874 14.1979 10.5002 14.0632 11.2691 13.6762L10.5947 12.3363ZM9.0171 12.5802C8.47865 12.4936 7.98124 12.2393 7.5956 11.8537L6.53494 12.9144C7.14367 13.5231 7.92885 13.9244 8.77879 14.0611L9.0171 12.5802ZM7.5956 11.8537C7.20996 11.4681 6.95574 10.9706 6.8691 10.4322L5.38815 10.6705C5.52492 11.5204 5.92621 12.3056 6.53494 12.9144L7.5956 11.8537ZM6.8691 10.4322C6.78245 9.89375 6.8678 9.34169 7.11299 8.85455L5.77314 8.18016C5.3861 8.94913 5.25138 9.82055 5.38815 10.6705L6.8691 10.4322ZM7.11299 8.85455C7.35819 8.3674 7.75075 7.96997 8.23483 7.71879L7.54398 6.38735C6.77984 6.78385 6.16018 7.41119 5.77314 8.18016L7.11299 8.85455ZM8.23483 7.71879C8.71892 7.46761 9.26988 7.37546 9.80935 7.45546L10.0294 5.97168C9.17781 5.8454 8.30811 5.99086 7.54398 6.38735L8.23483 7.71879ZM9.80935 7.45546C10.3596 7.53706 10.8691 7.79348 11.2625 8.18684L12.3231 7.12618C11.7022 6.50525 10.898 6.10049 10.0294 5.97168L9.80935 7.45546ZM11.2625 8.18684C11.6558 8.58021 11.9122 9.08965 11.9938 9.63994L13.4776 9.41991C13.3488 8.55128 12.944 7.74711 12.3231 7.12618L11.2625 8.18684Z" fill="white"/>
</svg>
