<svg width="30" height="31" viewBox="0 0 30 31" fill="none" xmlns="http://www.w3.org/2000/svg">
<path d="M17.4 15.3434L16.6581 15.4534L17.4 15.3434ZM15.378 13.3214L15.268 14.0633L15.378 13.3214ZM28.25 15.3218C28.25 22.6396 22.3178 28.5718 15 28.5718V30.0718C23.1462 30.0718 29.75 23.468 29.75 15.3218H28.25ZM15 28.5718C7.68223 28.5718 1.75 22.6396 1.75 15.3218H0.25C0.25 23.468 6.8538 30.0718 15 30.0718V28.5718ZM1.75 15.3218C1.75 8.004 7.68223 2.07178 15 2.07178V0.571777C6.8538 0.571777 0.25 7.17558 0.25 15.3218H1.75ZM15 2.07178C22.3178 2.07178 28.25 8.004 28.25 15.3218H29.75C29.75 7.17558 23.1462 0.571777 15 0.571777V2.07178ZM12 10.4712H18V8.97119H12V10.4712ZM18 10.4712C19.2427 10.4712 20.25 11.4786 20.25 12.7212H21.75C21.75 10.6501 20.0711 8.97119 18 8.97119V10.4712ZM20.25 12.7212V18.7212H21.75V12.7212H20.25ZM20.25 18.7212C20.25 19.9638 19.2427 20.9712 18 20.9712V22.4712C20.0711 22.4712 21.75 20.7923 21.75 18.7212H20.25ZM18 20.9712H12V22.4712H18V20.9712ZM12 20.9712C10.7574 20.9712 9.75001 19.9638 9.75001 18.7212H8.25001C8.25001 20.7923 9.92895 22.4712 12 22.4712V20.9712ZM9.75001 18.7212V12.7212H8.25001V18.7212H9.75001ZM9.75001 12.7212C9.75001 11.4786 10.7574 10.4712 12 10.4712V8.97119C9.92895 8.97119 8.25001 10.6501 8.25001 12.7212H9.75001ZM16.6581 15.4534C16.7091 15.7967 16.6504 16.1473 16.4906 16.4554L17.822 17.1462C18.1272 16.5581 18.2391 15.8888 18.1419 15.2334L16.6581 15.4534ZM16.4906 16.4554C16.3307 16.7634 16.0778 17.0132 15.7678 17.1692L16.4422 18.5091C17.034 18.2112 17.5168 17.7343 17.822 17.1462L16.4906 16.4554ZM15.7678 17.1692C15.4578 17.3253 15.1065 17.3796 14.7639 17.3245L14.5256 18.8054C15.1797 18.9107 15.8504 18.807 16.4422 18.5091L15.7678 17.1692ZM14.7639 17.3245C14.4212 17.2693 14.1047 17.1075 13.8593 16.8621L12.7986 17.9228C13.2671 18.3913 13.8714 18.7001 14.5256 18.8054L14.7639 17.3245ZM13.8593 16.8621C13.6139 16.6167 13.4521 16.3002 13.3969 15.9575L11.916 16.1959C12.0213 16.85 12.3301 17.4543 12.7986 17.9228L13.8593 16.8621ZM13.3969 15.9575C13.3418 15.6149 13.3961 15.2636 13.5522 14.9536L12.2123 14.2792C11.9144 14.871 11.8107 15.5417 11.916 16.1959L13.3969 15.9575ZM13.5522 14.9536C13.7082 14.6436 13.958 14.3907 14.2661 14.2308L13.5752 12.8994C12.9871 13.2046 12.5102 13.6874 12.2123 14.2792L13.5522 14.9536ZM14.2661 14.2308C14.5741 14.071 14.9247 14.0124 15.268 14.0633L15.488 12.5795C14.8327 12.4823 14.1633 12.5942 13.5752 12.8994L14.2661 14.2308ZM15.268 14.0633C15.6182 14.1152 15.9424 14.2784 16.1927 14.5287L17.2534 13.468C16.7755 12.9901 16.1566 12.6786 15.488 12.5795L15.268 14.0633ZM16.1927 14.5287C16.443 14.779 16.6062 15.1032 16.6581 15.4534L18.1419 15.2334C18.0428 14.5648 17.7313 13.9459 17.2534 13.468L16.1927 14.5287Z" fill="white"/>
</svg>
