<svg width="14" height="15" viewBox="0 0 14 15" fill="none" xmlns="http://www.w3.org/2000/svg">
<path d="M9.40003 7.34337L8.65815 7.45338L9.40003 7.34337ZM7.37803 5.32137L7.26802 6.06326L7.37803 5.32137ZM4.00001 2.47119H10V0.971191H4.00001V2.47119ZM10 2.47119C11.2427 2.47119 12.25 3.47855 12.25 4.72119H13.75C13.75 2.65012 12.0711 0.971191 10 0.971191V2.47119ZM12.25 4.72119V10.7212H13.75V4.72119H12.25ZM12.25 10.7212C12.25 11.9638 11.2427 12.9712 10 12.9712V14.4712C12.0711 14.4712 13.75 12.7923 13.75 10.7212H12.25ZM10 12.9712H4.00001V14.4712H10V12.9712ZM4.00001 12.9712C2.75737 12.9712 1.75001 11.9638 1.75001 10.7212H0.250013C0.250013 12.7923 1.92895 14.4712 4.00001 14.4712V12.9712ZM1.75001 10.7212V4.72119H0.250013V10.7212H1.75001ZM1.75001 4.72119C1.75001 3.47855 2.75737 2.47119 4.00001 2.47119V0.971191C1.92895 0.971191 0.250013 2.65012 0.250013 4.72119H1.75001ZM8.65815 7.45338C8.70905 7.79669 8.65041 8.1473 8.49057 8.45535L9.82201 9.14621C10.1272 8.55811 10.2391 7.88875 10.1419 7.23336L8.65815 7.45338ZM8.49057 8.45535C8.33073 8.76341 8.07782 9.01322 7.76782 9.16925L8.4422 10.5091C9.03402 10.2112 9.51685 9.73431 9.82201 9.14621L8.49057 8.45535ZM7.76782 9.16925C7.45781 9.32528 7.1065 9.37959 6.76386 9.32446L6.52555 10.8054C7.1797 10.9107 7.85038 10.807 8.4422 10.5091L7.76782 9.16925ZM6.76386 9.32446C6.42121 9.26932 6.10467 9.10754 5.85927 8.86214L4.79861 9.9228C5.26711 10.3913 5.87141 10.7001 6.52555 10.8054L6.76386 9.32446ZM5.85927 8.86214C5.61386 8.61673 5.45208 8.3002 5.39695 7.95755L3.916 8.19585C4.02126 8.85 4.33011 9.4543 4.79861 9.9228L5.85927 8.86214ZM5.39695 7.95755C5.34181 7.6149 5.39612 7.26359 5.55215 6.95359L4.2123 6.2792C3.91442 6.87103 3.81074 7.54171 3.916 8.19585L5.39695 7.95755ZM5.55215 6.95359C5.70819 6.64359 5.958 6.39068 6.26605 6.23083L5.5752 4.8994C4.98709 5.20456 4.51018 5.68738 4.2123 6.2792L5.55215 6.95359ZM6.26605 6.23083C6.57411 6.07099 6.92472 6.01235 7.26802 6.06326L7.48805 4.57948C6.83265 4.4823 6.1633 4.59424 5.5752 4.8994L6.26605 6.23083ZM7.26802 6.06326C7.6182 6.11519 7.9424 6.27836 8.19272 6.52869L9.25338 5.46803C8.77549 4.99014 8.15657 4.67862 7.48805 4.57948L7.26802 6.06326ZM8.19272 6.52869C8.44304 6.77901 8.60622 7.1032 8.65815 7.45338L10.1419 7.23336C10.0428 6.56483 9.73127 5.94591 9.25338 5.46803L8.19272 6.52869Z" fill="white"/>
</svg>
