<svg width="116" height="30" viewBox="0 0 116 30" fill="none" xmlns="http://www.w3.org/2000/svg">
<path d="M49.9655 1.18182C50.0793 0.873058 50.4221 0.7153 50.7306 0.829306L74.8511 9.76553L74.8541 9.76378C74.9941 9.81553 75.1096 9.91804 75.1776 10.051C75.3276 10.3438 75.2119 10.7028 74.9191 10.8528L71.3077 12.7072C71.6057 13.3722 71.6932 14.1125 71.5584 14.8288C71.1939 16.7672 69.3268 18.043 67.3882 17.6782L67.1649 18.2865C67.0787 18.521 66.8552 18.6768 66.6054 18.6768C66.5354 18.6768 66.4662 18.6645 66.4004 18.6403L61.3671 16.7934L60.9561 17.9122C60.7476 18.4797 60.3293 18.9455 59.7878 19.214V25.8136C59.7878 26.8007 58.9875 27.601 58.0005 27.601C57.0134 27.601 56.2134 26.8007 56.2134 25.8136V25.2178H48.1974C47.8094 26.1051 47.0154 26.7489 46.0671 26.9457V28.1965C46.0671 28.5258 45.8006 28.7923 45.4713 28.7923H43.0694C42.7404 28.7923 42.4736 28.5258 42.4736 28.1965V18.6648C42.4736 18.3357 42.7404 18.069 43.0694 18.069H45.4713C45.8006 18.069 46.0671 18.3357 46.0671 18.6648V19.9158C47.0154 20.1123 47.8094 20.7564 48.1974 21.6434H56.2134V18.6032C55.3393 17.987 54.9908 16.8589 55.3643 15.8569L55.7753 14.738L50.1825 12.6847C49.8738 12.5712 49.7155 12.2292 49.8288 11.9204L50.4448 10.2421L47.6484 9.2155C47.3396 9.102 47.1814 8.75948 47.2949 8.45071L49.9655 1.18182ZM49.9655 1.18182C49.9653 1.18207 49.9658 1.18157 49.9655 1.18182ZM54.1292 8.70337L53.6038 10.1233M56.419 9.5434L55.8935 10.9633M58.641 10.3699L58.1155 11.7898M1.00049 14.5837C1.00049 14.1575 1.34598 13.812 1.77216 13.812H32.2288C32.655 13.812 33.0005 14.1575 33.0005 14.5837C33.0005 15.0099 32.655 15.3554 32.2288 15.3554H1.77216C1.34598 15.3554 1.00049 15.0099 1.00049 14.5837ZM83.0005 14.5837C83.0005 14.1575 83.346 13.812 83.7722 13.812H114.229C114.655 13.812 115 14.1575 115 14.5837C115 15.0099 114.655 15.3554 114.229 15.3554H83.7722C83.346 15.3554 83.0005 15.0099 83.0005 14.5837ZM57.4047 19.146L57.8979 19.3248C58.1225 19.4053 58.358 19.4515 58.5962 19.4618V21.6434H57.4047V19.146ZM44.8758 27.601H43.6652V19.2605H44.8758V27.601ZM47.2586 24.0265C47.2576 24.7836 46.7806 25.4584 46.0671 25.7119V21.1496C46.7806 21.4029 47.2576 22.0777 47.2586 22.835V24.0265ZM48.4687 22.835H58.5962V24.0265H48.4687V22.835ZM58.0005 26.4094C57.6714 26.4094 57.4047 26.1426 57.4047 25.8136V25.2178H58.5962V25.8136C58.5962 26.1426 58.3295 26.4094 58.0005 26.4094ZM60.2488 16.3831L59.8378 17.5019C59.6108 18.119 58.9265 18.4355 58.309 18.209L57.1884 17.7985C56.5709 17.5717 56.2539 16.8872 56.4806 16.2694L56.8919 15.1511L60.2488 16.3831ZM66.2521 17.3184L51.1523 11.7736L51.5636 10.6548L60.5111 13.9405C60.7229 14.0175 60.9604 13.9693 61.1251 13.8152L62.797 12.2414L67.4842 13.963L66.2521 17.3184ZM70.2801 14.9901C69.9026 16.0079 68.8873 16.6439 67.807 16.5391L68.7275 14.0315L70.2311 13.2572C70.4664 13.8077 70.4839 14.4273 70.2801 14.9901ZM68.2692 12.9302C68.2377 12.9329 68.2065 12.9384 68.1757 12.9467L62.8642 10.9963C62.6525 10.9186 62.4149 10.9668 62.2504 11.1214L60.5766 12.6954L48.6187 8.3042L50.8773 2.15438L73.1675 10.4126L68.2692 12.9302Z" stroke="#E3B873" stroke-linecap="round"/>
</svg>
