<svg width="73" height="73" viewBox="0 0 73 73" fill="none" xmlns="http://www.w3.org/2000/svg">
<mask id="path-1-outside-1_118837_2" maskUnits="userSpaceOnUse" x="-0.5" y="-0.557617" width="74" height="74" fill="black">
<rect fill="white" x="-0.5" y="-0.557617" width="74" height="74"/>
<path d="M72.5 36.4424C72.5 56.3246 56.3823 72.4424 36.5 72.4424C16.6177 72.4424 0.5 56.3246 0.5 36.4424C0.5 16.5601 16.6177 0.442383 36.5 0.442383C56.3823 0.442383 72.5 16.5601 72.5 36.4424Z"/>
<path d="M36.8396 43.7706C36.4878 43.7706 36.2026 44.0487 36.2026 44.3917V45.7163C36.2026 46.0593 36.4878 46.3373 36.8396 46.3373C37.1914 46.3373 37.4765 46.0593 37.4765 45.7163V44.3917C37.4765 44.0487 37.1914 43.7706 36.8396 43.7706Z"/>
<path d="M56.1144 34.8723C55.8658 34.6299 55.5354 34.4965 55.1838 34.4965C55.1838 34.4965 55.1837 34.4965 55.1838 34.4965L53.5484 34.4967C53.5277 34.4967 53.5135 34.474 53.5091 34.453C53.0597 32.3036 52.0518 30.2772 50.5943 28.5929C49.1855 26.965 47.3813 25.6847 45.3693 24.8805C45.0448 23.5448 44.3595 22.1676 43.0082 21.1324C41.6999 20.1301 40.3823 19.9372 40.3269 19.9294C40.1444 19.9041 39.959 19.9571 39.8195 20.0751C39.6799 20.1931 39.5998 20.3642 39.5998 20.5442V23.8978H37.2883C36.717 21.9866 34.9055 20.5857 32.7634 20.5857C30.5758 20.5857 28.7319 22.0464 28.2027 24.0199C25.0534 24.4381 22.1559 25.9258 20.0059 28.2387C17.7451 30.6711 16.5 33.8198 16.5 37.1048C16.5 44.4783 20.4262 50.4779 21.6296 52.1409C22.0013 52.6547 22.6102 52.9615 23.2582 52.9615H25.9692C27.0697 52.9615 27.965 52.0886 27.965 51.0156V50.156C28.651 50.259 29.348 50.3118 30.0457 50.3118H36.2028V51.0156C36.2028 52.0886 37.0981 52.9615 38.1986 52.9615H41.1765C42.1113 52.9615 42.932 52.3146 43.1279 51.4234L43.4548 49.9362C47.641 48.9422 51.0069 46.0788 52.6635 42.3629H55.1837C55.9095 42.3629 56.5 41.7872 56.5 41.0795V35.7801C56.5 35.4371 56.3631 35.1148 56.1144 34.8723ZM32.7633 21.8278C34.6598 21.8278 36.2027 23.3322 36.2027 25.1813C36.2027 25.6542 36.0989 26.12 35.9033 26.5476H29.6232C29.4277 26.1199 29.3237 25.6542 29.3237 25.1813C29.3237 23.3321 30.8667 21.8278 32.7633 21.8278ZM55.2261 41.0793C55.2261 41.1022 55.2071 41.1208 55.1836 41.1208H53.1423C53.4893 40.0617 53.7028 38.9479 53.7639 37.7994C53.7822 37.4569 53.5121 37.1648 53.1608 37.147C52.8095 37.1297 52.5099 37.3925 52.4917 37.7351C52.2219 42.8075 48.6809 47.1384 43.7548 48.5707L44.6448 44.5218C44.7185 44.1864 44.4994 43.8563 44.1554 43.7844C43.8116 43.7124 43.4728 43.9262 43.3991 44.2616L41.8823 51.163C41.8114 51.4854 41.5145 51.7194 41.1765 51.7194H38.1984C37.8004 51.7194 37.4766 51.4037 37.4766 51.0156V48.3659C37.4766 48.0229 37.1914 47.7448 36.8396 47.7448C36.4878 47.7448 36.2027 48.0229 36.2027 48.3659V49.0697H30.0455C29.3467 49.0697 28.6491 49.0111 27.9648 48.8974V44.3914C27.9648 44.0484 27.6797 43.7704 27.3279 43.7704C26.9761 43.7704 26.6909 44.0484 26.6909 44.3914V51.0156C26.6909 51.4037 26.3671 51.7195 25.9691 51.7195H23.2582C23.0201 51.7195 22.8059 51.6122 22.6705 51.425C21.5219 49.8373 17.7739 44.1127 17.7739 37.1048C17.7739 34.1286 18.9018 31.2761 20.9498 29.0728C22.824 27.0563 25.3247 25.7325 28.0519 25.2977C28.0629 25.7232 28.1345 26.144 28.2629 26.5474H28.0074C27.6556 26.5474 27.3705 26.8254 27.3705 27.1684C27.3705 27.5114 27.6556 27.7895 28.0074 27.7895H37.5191C37.8709 27.7895 38.1561 27.5114 38.1561 27.1684C38.1561 26.8254 37.8709 26.5474 37.5191 26.5474H37.2636C37.4038 26.1072 37.4766 25.6465 37.4766 25.1812C37.4766 25.1673 37.4757 25.1536 37.4755 25.1398H39.5998V26.506C39.5998 26.849 39.8849 27.127 40.2367 27.127C40.5885 27.127 40.8737 26.849 40.8737 26.506V21.3597C42.0822 21.8056 44.3556 23.1752 44.3556 27.1685C44.3556 27.5115 44.6408 27.7895 44.9926 27.7895C45.3444 27.7895 45.6295 27.5115 45.6295 27.1685C45.6295 26.9054 45.6198 26.6276 45.5974 26.3405C47.1339 27.0703 48.5123 28.1132 49.6207 29.394C50.941 30.9198 51.854 32.755 52.2609 34.7012C52.3866 35.3025 52.9282 35.7389 53.5487 35.7388L55.1838 35.7387C55.188 35.7387 55.2013 35.7387 55.2138 35.7508C55.2262 35.7629 55.2262 35.7757 55.2262 35.7801L55.2261 41.0793Z"/>
<path d="M49.6658 34.9007C49.2705 33.8666 48.224 33.1718 47.0621 33.1718C45.9001 33.1718 44.8538 33.8665 44.4583 34.9007C44.3354 35.2221 44.503 35.5797 44.8326 35.6995C45.1623 35.8195 45.5291 35.656 45.6519 35.3346C45.8625 34.7839 46.4292 34.4138 47.062 34.4138C47.6948 34.4138 48.2616 34.7839 48.4722 35.3346C48.5677 35.5845 48.8107 35.7388 49.0691 35.7388C49.143 35.7388 49.2182 35.7262 49.2915 35.6995C49.6211 35.5797 49.7887 35.222 49.6658 34.9007Z"/>
<path d="M33.4002 36.6314V33.4578C34.6497 33.6058 35.5233 34.1703 35.5233 34.683C35.5233 35.026 35.8085 35.304 36.1603 35.304C36.5121 35.304 36.7972 35.026 36.7972 34.683C36.7972 33.4134 35.3493 32.3926 33.4002 32.2082V32.1368C33.4002 31.7938 33.115 31.5158 32.7632 31.5158C32.4114 31.5158 32.1263 31.7938 32.1263 32.1368V32.2082C30.1772 32.3926 28.7292 33.4134 28.7292 34.683C28.7292 36.4964 30.5667 37.1509 32.1263 37.5785V40.7521C30.8767 40.6041 30.0032 40.0396 30.0032 39.5269C30.0032 39.1839 29.718 38.9059 29.3662 38.9059C29.0144 38.9059 28.7292 39.1839 28.7292 39.5269C28.7292 40.7965 30.1772 41.8173 32.1263 42.0017V42.0731C32.1263 42.4161 32.4114 42.6941 32.7632 42.6941C33.115 42.6941 33.4002 42.4161 33.4002 42.0731V42.0017C35.3493 41.8173 36.7972 40.7965 36.7972 39.5269C36.7972 37.7134 34.9596 37.059 33.4002 36.6314ZM32.1263 36.2783C30.5575 35.7984 30.0032 35.3624 30.0032 34.683C30.0032 34.1703 30.8767 33.6058 32.1263 33.4578V36.2783ZM33.4002 40.7522V37.9317C34.9689 38.4114 35.5233 38.8475 35.5233 39.527C35.5233 40.0397 34.6496 40.6041 33.4002 40.7522Z"/>
</mask>
<path d="M72.5 36.4424C72.5 56.3246 56.3823 72.4424 36.5 72.4424C16.6177 72.4424 0.5 56.3246 0.5 36.4424C0.5 16.5601 16.6177 0.442383 36.5 0.442383C56.3823 0.442383 72.5 16.5601 72.5 36.4424Z" fill="#E3B873"/>
<path d="M36.8396 43.7706C36.4878 43.7706 36.2026 44.0487 36.2026 44.3917V45.7163C36.2026 46.0593 36.4878 46.3373 36.8396 46.3373C37.1914 46.3373 37.4765 46.0593 37.4765 45.7163V44.3917C37.4765 44.0487 37.1914 43.7706 36.8396 43.7706Z" fill="white"/>
<path d="M56.1144 34.8723C55.8658 34.6299 55.5354 34.4965 55.1838 34.4965C55.1838 34.4965 55.1837 34.4965 55.1838 34.4965L53.5484 34.4967C53.5277 34.4967 53.5135 34.474 53.5091 34.453C53.0597 32.3036 52.0518 30.2772 50.5943 28.5929C49.1855 26.965 47.3813 25.6847 45.3693 24.8805C45.0448 23.5448 44.3595 22.1676 43.0082 21.1324C41.6999 20.1301 40.3823 19.9372 40.3269 19.9294C40.1444 19.9041 39.959 19.9571 39.8195 20.0751C39.6799 20.1931 39.5998 20.3642 39.5998 20.5442V23.8978H37.2883C36.717 21.9866 34.9055 20.5857 32.7634 20.5857C30.5758 20.5857 28.7319 22.0464 28.2027 24.0199C25.0534 24.4381 22.1559 25.9258 20.0059 28.2387C17.7451 30.6711 16.5 33.8198 16.5 37.1048C16.5 44.4783 20.4262 50.4779 21.6296 52.1409C22.0013 52.6547 22.6102 52.9615 23.2582 52.9615H25.9692C27.0697 52.9615 27.965 52.0886 27.965 51.0156V50.156C28.651 50.259 29.348 50.3118 30.0457 50.3118H36.2028V51.0156C36.2028 52.0886 37.0981 52.9615 38.1986 52.9615H41.1765C42.1113 52.9615 42.932 52.3146 43.1279 51.4234L43.4548 49.9362C47.641 48.9422 51.0069 46.0788 52.6635 42.3629H55.1837C55.9095 42.3629 56.5 41.7872 56.5 41.0795V35.7801C56.5 35.4371 56.3631 35.1148 56.1144 34.8723ZM32.7633 21.8278C34.6598 21.8278 36.2027 23.3322 36.2027 25.1813C36.2027 25.6542 36.0989 26.12 35.9033 26.5476H29.6232C29.4277 26.1199 29.3237 25.6542 29.3237 25.1813C29.3237 23.3321 30.8667 21.8278 32.7633 21.8278ZM55.2261 41.0793C55.2261 41.1022 55.2071 41.1208 55.1836 41.1208H53.1423C53.4893 40.0617 53.7028 38.9479 53.7639 37.7994C53.7822 37.4569 53.5121 37.1648 53.1608 37.147C52.8095 37.1297 52.5099 37.3925 52.4917 37.7351C52.2219 42.8075 48.6809 47.1384 43.7548 48.5707L44.6448 44.5218C44.7185 44.1864 44.4994 43.8563 44.1554 43.7844C43.8116 43.7124 43.4728 43.9262 43.3991 44.2616L41.8823 51.163C41.8114 51.4854 41.5145 51.7194 41.1765 51.7194H38.1984C37.8004 51.7194 37.4766 51.4037 37.4766 51.0156V48.3659C37.4766 48.0229 37.1914 47.7448 36.8396 47.7448C36.4878 47.7448 36.2027 48.0229 36.2027 48.3659V49.0697H30.0455C29.3467 49.0697 28.6491 49.0111 27.9648 48.8974V44.3914C27.9648 44.0484 27.6797 43.7704 27.3279 43.7704C26.9761 43.7704 26.6909 44.0484 26.6909 44.3914V51.0156C26.6909 51.4037 26.3671 51.7195 25.9691 51.7195H23.2582C23.0201 51.7195 22.8059 51.6122 22.6705 51.425C21.5219 49.8373 17.7739 44.1127 17.7739 37.1048C17.7739 34.1286 18.9018 31.2761 20.9498 29.0728C22.824 27.0563 25.3247 25.7325 28.0519 25.2977C28.0629 25.7232 28.1345 26.144 28.2629 26.5474H28.0074C27.6556 26.5474 27.3705 26.8254 27.3705 27.1684C27.3705 27.5114 27.6556 27.7895 28.0074 27.7895H37.5191C37.8709 27.7895 38.1561 27.5114 38.1561 27.1684C38.1561 26.8254 37.8709 26.5474 37.5191 26.5474H37.2636C37.4038 26.1072 37.4766 25.6465 37.4766 25.1812C37.4766 25.1673 37.4757 25.1536 37.4755 25.1398H39.5998V26.506C39.5998 26.849 39.8849 27.127 40.2367 27.127C40.5885 27.127 40.8737 26.849 40.8737 26.506V21.3597C42.0822 21.8056 44.3556 23.1752 44.3556 27.1685C44.3556 27.5115 44.6408 27.7895 44.9926 27.7895C45.3444 27.7895 45.6295 27.5115 45.6295 27.1685C45.6295 26.9054 45.6198 26.6276 45.5974 26.3405C47.1339 27.0703 48.5123 28.1132 49.6207 29.394C50.941 30.9198 51.854 32.755 52.2609 34.7012C52.3866 35.3025 52.9282 35.7389 53.5487 35.7388L55.1838 35.7387C55.188 35.7387 55.2013 35.7387 55.2138 35.7508C55.2262 35.7629 55.2262 35.7757 55.2262 35.7801L55.2261 41.0793Z" fill="white"/>
<path d="M49.6658 34.9007C49.2705 33.8666 48.224 33.1718 47.0621 33.1718C45.9001 33.1718 44.8538 33.8665 44.4583 34.9007C44.3354 35.2221 44.503 35.5797 44.8326 35.6995C45.1623 35.8195 45.5291 35.656 45.6519 35.3346C45.8625 34.7839 46.4292 34.4138 47.062 34.4138C47.6948 34.4138 48.2616 34.7839 48.4722 35.3346C48.5677 35.5845 48.8107 35.7388 49.0691 35.7388C49.143 35.7388 49.2182 35.7262 49.2915 35.6995C49.6211 35.5797 49.7887 35.222 49.6658 34.9007Z" fill="white"/>
<path d="M33.4002 36.6314V33.4578C34.6497 33.6058 35.5233 34.1703 35.5233 34.683C35.5233 35.026 35.8085 35.304 36.1603 35.304C36.5121 35.304 36.7972 35.026 36.7972 34.683C36.7972 33.4134 35.3493 32.3926 33.4002 32.2082V32.1368C33.4002 31.7938 33.115 31.5158 32.7632 31.5158C32.4114 31.5158 32.1263 31.7938 32.1263 32.1368V32.2082C30.1772 32.3926 28.7292 33.4134 28.7292 34.683C28.7292 36.4964 30.5667 37.1509 32.1263 37.5785V40.7521C30.8767 40.6041 30.0032 40.0396 30.0032 39.5269C30.0032 39.1839 29.718 38.9059 29.3662 38.9059C29.0144 38.9059 28.7292 39.1839 28.7292 39.5269C28.7292 40.7965 30.1772 41.8173 32.1263 42.0017V42.0731C32.1263 42.4161 32.4114 42.6941 32.7632 42.6941C33.115 42.6941 33.4002 42.4161 33.4002 42.0731V42.0017C35.3493 41.8173 36.7972 40.7965 36.7972 39.5269C36.7972 37.7134 34.9596 37.059 33.4002 36.6314ZM32.1263 36.2783C30.5575 35.7984 30.0032 35.3624 30.0032 34.683C30.0032 34.1703 30.8767 33.6058 32.1263 33.4578V36.2783ZM33.4002 40.7522V37.9317C34.9689 38.4114 35.5233 38.8475 35.5233 39.527C35.5233 40.0397 34.6496 40.6041 33.4002 40.7522Z" fill="white"/>
<path d="M56.1144 34.8723L56.0446 34.9439L56.0446 34.9439L56.1144 34.8723ZM53.5484 34.4967L53.5484 34.5967L53.5485 34.5967L53.5484 34.4967ZM53.5091 34.453L53.607 34.4326L53.607 34.4325L53.5091 34.453ZM50.5943 28.5929L50.6699 28.5275L50.6699 28.5275L50.5943 28.5929ZM45.3693 24.8805L45.2721 24.9042L45.2843 24.9543L45.3322 24.9734L45.3693 24.8805ZM43.0082 21.1324L43.069 21.053L43.069 21.053L43.0082 21.1324ZM40.3269 19.9294L40.3408 19.8304L40.3406 19.8304L40.3269 19.9294ZM39.8195 20.0751L39.884 20.1514L39.884 20.1514L39.8195 20.0751ZM39.5998 23.8978V23.9978H39.6998V23.8978H39.5998ZM37.2883 23.8978L37.1925 23.9264L37.2138 23.9978H37.2883V23.8978ZM28.2027 24.0199L28.2159 24.119L28.282 24.1102L28.2993 24.0458L28.2027 24.0199ZM20.0059 28.2387L19.9326 28.1707L19.9326 28.1707L20.0059 28.2387ZM21.6296 52.1409L21.7106 52.0823L21.7106 52.0823L21.6296 52.1409ZM27.965 50.156L27.9798 50.0572L27.865 50.0399V50.156H27.965ZM36.2028 50.3118H36.3028V50.2118H36.2028V50.3118ZM43.1279 51.4234L43.0302 51.4019L43.0302 51.4019L43.1279 51.4234ZM43.4548 49.9362L43.4317 49.8389L43.3706 49.8534L43.3571 49.9147L43.4548 49.9362ZM52.6635 42.3629V42.2629H52.5986L52.5722 42.3222L52.6635 42.3629ZM35.9033 26.5476V26.6476H35.9675L35.9942 26.5892L35.9033 26.5476ZM29.6232 26.5476L29.5323 26.5891L29.559 26.6476H29.6232V26.5476ZM55.2261 41.0793L55.1261 41.0793V41.0793H55.2261ZM53.1423 41.1208L53.0473 41.0896L53.0044 41.2208H53.1423V41.1208ZM53.7639 37.7994L53.664 37.794L53.664 37.7941L53.7639 37.7994ZM53.1608 37.147L53.1658 37.0472L53.1657 37.0472L53.1608 37.147ZM52.4917 37.7351L52.5916 37.7404L52.5916 37.7404L52.4917 37.7351ZM43.7548 48.5707L43.6572 48.5492L43.621 48.7137L43.7828 48.6667L43.7548 48.5707ZM44.6448 44.5218L44.5471 44.5003L44.5471 44.5003L44.6448 44.5218ZM44.1554 43.7844L44.1349 43.8823L44.135 43.8823L44.1554 43.7844ZM43.3991 44.2616L43.4968 44.283L43.4968 44.283L43.3991 44.2616ZM41.8823 51.163L41.9799 51.1845L41.9799 51.1845L41.8823 51.163ZM36.2027 49.0697V49.1697H36.3027V49.0697H36.2027ZM27.9648 48.8974H27.8648V48.9821L27.9484 48.996L27.9648 48.8974ZM22.6705 51.425L22.7516 51.3664L22.7516 51.3664L22.6705 51.425ZM20.9498 29.0728L21.023 29.1409L21.023 29.1409L20.9498 29.0728ZM28.0519 25.2977L28.1518 25.2951L28.1489 25.1809L28.0361 25.1989L28.0519 25.2977ZM28.2629 26.5474V26.6474H28.3997L28.3582 26.5171L28.2629 26.5474ZM37.2636 26.5474L37.1683 26.5171L37.1268 26.6474H37.2636V26.5474ZM37.4755 25.1398V25.0398H37.3744L37.3756 25.1409L37.4755 25.1398ZM39.5998 25.1398H39.6998V25.0398H39.5998V25.1398ZM40.8737 21.3597L40.9083 21.2658L40.7737 21.2162V21.3597H40.8737ZM45.5974 26.3405L45.6403 26.2502L45.4843 26.1761L45.4977 26.3483L45.5974 26.3405ZM49.6207 29.394L49.6963 29.3286L49.6963 29.3286L49.6207 29.394ZM52.2609 34.7012L52.3588 34.6807L52.3588 34.6807L52.2609 34.7012ZM53.5487 35.7388L53.5487 35.6388L53.5487 35.6388L53.5487 35.7388ZM55.1838 35.7387L55.1838 35.6387L55.1837 35.6387L55.1838 35.7387ZM55.2138 35.7508L55.2836 35.6792L55.2836 35.6792L55.2138 35.7508ZM55.2262 35.7801L55.3262 35.7801V35.7801H55.2262ZM49.6658 34.9007L49.5724 34.9364L49.5724 34.9364L49.6658 34.9007ZM44.4583 34.9007L44.3649 34.865L44.3649 34.865L44.4583 34.9007ZM44.8326 35.6995L44.8668 35.6056L44.8667 35.6056L44.8326 35.6995ZM45.6519 35.3346L45.5585 35.2989L45.5585 35.2989L45.6519 35.3346ZM48.4722 35.3346L48.3788 35.3703L48.3788 35.3703L48.4722 35.3346ZM49.2915 35.6995L49.2573 35.6056L49.2573 35.6056L49.2915 35.6995ZM33.4002 36.6314H33.3002V36.7077L33.3737 36.7278L33.4002 36.6314ZM33.4002 33.4578L33.412 33.3585L33.3002 33.3452V33.4578H33.4002ZM33.4002 32.2082H33.3002V32.2992L33.3908 32.3077L33.4002 32.2082ZM32.1263 32.2082L32.1357 32.3077L32.2263 32.2992V32.2082H32.1263ZM32.1263 37.5785H32.2263V37.5022L32.1527 37.4821L32.1263 37.5785ZM32.1263 40.7521L32.1145 40.8514L32.2263 40.8647V40.7521H32.1263ZM32.1263 42.0017H32.2263V41.9107L32.1357 41.9022L32.1263 42.0017ZM33.4002 42.0017L33.3908 41.9022L33.3002 41.9107V42.0017H33.4002ZM32.1263 36.2783L32.097 36.3739L32.2263 36.4134V36.2783H32.1263ZM32.1263 33.4578H32.2263V33.3452L32.1145 33.3585L32.1263 33.4578ZM33.4002 40.7522H33.3002V40.8648L33.412 40.8515L33.4002 40.7522ZM33.4002 37.9317L33.4294 37.8361L33.3002 37.7966V37.9317H33.4002ZM72.4 36.4424C72.4 56.2694 56.327 72.3424 36.5 72.3424V72.5424C56.4375 72.5424 72.6 56.3799 72.6 36.4424H72.4ZM36.5 72.3424C16.673 72.3424 0.6 56.2694 0.6 36.4424H0.4C0.4 56.3799 16.5625 72.5424 36.5 72.5424V72.3424ZM0.6 36.4424C0.6 16.6154 16.673 0.542383 36.5 0.542383V0.342383C16.5625 0.342383 0.4 16.5049 0.4 36.4424H0.6ZM36.5 0.542383C56.327 0.542383 72.4 16.6154 72.4 36.4424H72.6C72.6 16.5049 56.4375 0.342383 36.5 0.342383V0.542383ZM36.8396 43.6706C36.435 43.6706 36.1026 43.9911 36.1026 44.3917H36.3026C36.3026 44.1063 36.5406 43.8706 36.8396 43.8706V43.6706ZM36.1026 44.3917V45.7163H36.3026V44.3917H36.1026ZM36.1026 45.7163C36.1026 46.1169 36.435 46.4373 36.8396 46.4373V46.2373C36.5406 46.2373 36.3026 46.0017 36.3026 45.7163H36.1026ZM36.8396 46.4373C37.2442 46.4373 37.5765 46.1169 37.5765 45.7163H37.3765C37.3765 46.0017 37.1386 46.2373 36.8396 46.2373V46.4373ZM37.5765 45.7163V44.3917H37.3765V45.7163H37.5765ZM37.5765 44.3917C37.5765 43.9911 37.2442 43.6706 36.8396 43.6706V43.8706C37.1386 43.8706 37.3765 44.1063 37.3765 44.3917H37.5765ZM56.1842 34.8007C55.9167 34.5399 55.5611 34.3965 55.1838 34.3965V34.5965C55.5097 34.5965 55.8149 34.72 56.0446 34.9439L56.1842 34.8007ZM55.1838 34.3965C55.1838 34.3965 55.1837 34.3965 55.1837 34.3965C55.1837 34.3965 55.1837 34.3965 55.1837 34.3965C55.1837 34.3965 55.1837 34.3965 55.1837 34.3965C55.1837 34.3965 55.1837 34.3965 55.1837 34.3965C55.1837 34.3965 55.1837 34.3965 55.1837 34.3965C55.1837 34.3965 55.1837 34.3965 55.1837 34.3965C55.1837 34.3965 55.1837 34.3965 55.1837 34.3965C55.1837 34.3965 55.1837 34.3965 55.1837 34.3965C55.1837 34.3965 55.1837 34.3965 55.1837 34.3965C55.1837 34.3965 55.1837 34.3965 55.1837 34.3965C55.1837 34.3965 55.1837 34.3965 55.1837 34.3965C55.1837 34.3965 55.1837 34.3965 55.1837 34.3965C55.1837 34.3965 55.1837 34.3965 55.1837 34.3965C55.1837 34.3965 55.1837 34.3965 55.1837 34.3965C55.1837 34.3965 55.1837 34.3965 55.1837 34.3965C55.1837 34.3965 55.1837 34.3965 55.1837 34.3965C55.1837 34.3965 55.1837 34.3965 55.1837 34.3965C55.1837 34.3965 55.1837 34.3965 55.1837 34.3965C55.1837 34.3965 55.1837 34.3965 55.1837 34.3965C55.1837 34.3965 55.1837 34.3965 55.1837 34.3965C55.1837 34.3965 55.1837 34.3965 55.1837 34.3965C55.1837 34.3965 55.1837 34.3965 55.1837 34.3965C55.1837 34.3965 55.1837 34.3965 55.1837 34.3965C55.1837 34.3965 55.1837 34.3965 55.1837 34.3965C55.1837 34.3965 55.1837 34.3965 55.1837 34.3965C55.1837 34.3965 55.1837 34.3965 55.1837 34.3965C55.1837 34.3965 55.1837 34.3965 55.1837 34.3965C55.1837 34.3965 55.1837 34.3965 55.1837 34.3965C55.1837 34.3965 55.1837 34.3965 55.1837 34.3965C55.1837 34.3965 55.1837 34.3965 55.1837 34.3965C55.1837 34.3965 55.1837 34.3965 55.1837 34.3965C55.1837 34.3965 55.1837 34.3965 55.1837 34.3965C55.1837 34.3965 55.1837 34.3965 55.1837 34.3965C55.1837 34.3965 55.1837 34.3965 55.1837 34.3965C55.1837 34.3965 55.1837 34.3965 55.1837 34.3965C55.1837 34.3965 55.1837 34.3965 55.1837 34.3965C55.1837 34.3965 55.1837 34.3965 55.1837 34.3965C55.1837 34.3965 55.1837 34.3965 55.1837 34.3965C55.1837 34.3965 55.1837 34.3965 55.1837 34.3965C55.1837 34.3965 55.1837 34.3965 55.1837 34.3965C55.1837 34.3965 55.1837 34.3965 55.1837 34.3965C55.1837 34.3965 55.1837 34.3965 55.1837 34.3965C55.1837 34.3965 55.1837 34.3965 55.1837 34.3965C55.1837 34.3965 55.1837 34.3965 55.1837 34.3965C55.1837 34.3965 55.1837 34.3965 55.1837 34.3965C55.1837 34.3965 55.1837 34.3965 55.1837 34.3965C55.1837 34.3965 55.1837 34.3965 55.1837 34.3965C55.1837 34.3965 55.1837 34.3965 55.1837 34.3965C55.1837 34.3965 55.1837 34.3965 55.1837 34.3965C55.1837 34.3965 55.1837 34.3965 55.1837 34.3965C55.1837 34.3965 55.1837 34.3965 55.1837 34.3965C55.1837 34.3965 55.1837 34.3965 55.1837 34.3965C55.1837 34.3965 55.1837 34.3965 55.1837 34.3965C55.1837 34.3965 55.1837 34.3965 55.1837 34.3965C55.1837 34.3965 55.1837 34.3965 55.1837 34.3965C55.1837 34.3965 55.1837 34.3965 55.1837 34.3965C55.1837 34.3965 55.1837 34.3965 55.1837 34.3965C55.1837 34.3965 55.1837 34.3965 55.1837 34.3965C55.1837 34.3965 55.1837 34.3965 55.1837 34.3965C55.1837 34.3965 55.1837 34.3965 55.1837 34.3965C55.1837 34.3965 55.1837 34.3965 55.1837 34.3965C55.1837 34.3965 55.1837 34.3965 55.1837 34.3965C55.1837 34.3965 55.1837 34.3965 55.1837 34.3965C55.1837 34.3965 55.1837 34.3965 55.1837 34.3965C55.1837 34.3965 55.1837 34.3965 55.1837 34.3965C55.1837 34.3965 55.1837 34.3965 55.1837 34.3965C55.1837 34.3965 55.1837 34.3965 55.1837 34.3965C55.1837 34.3965 55.1837 34.3965 55.1837 34.3965C55.1837 34.3965 55.1837 34.3965 55.1837 34.3965C55.1837 34.3965 55.1837 34.3965 55.1837 34.3965C55.1837 34.3965 55.1837 34.3965 55.1837 34.3965C55.1837 34.3965 55.1837 34.3965 55.1837 34.3965C55.1837 34.3965 55.1837 34.3965 55.1837 34.3965C55.1837 34.3965 55.1837 34.3965 55.1837 34.3965C55.1837 34.3965 55.1837 34.3965 55.1837 34.3965C55.1837 34.3965 55.1837 34.3965 55.1837 34.3965C55.1837 34.3965 55.1837 34.3965 55.1837 34.3965C55.1837 34.3965 55.1837 34.3965 55.1837 34.3965C55.1837 34.3965 55.1837 34.3965 55.1837 34.3965C55.1837 34.3965 55.1837 34.3965 55.1837 34.3965C55.1837 34.3965 55.1837 34.3965 55.1837 34.3965C55.1837 34.3965 55.1837 34.3965 55.1837 34.3965C55.1837 34.3965 55.1837 34.3965 55.1837 34.3965C55.1837 34.3965 55.1837 34.3965 55.1837 34.3965C55.1837 34.3965 55.1837 34.3965 55.1837 34.3965C55.1837 34.3965 55.1837 34.3965 55.1837 34.3965C55.1837 34.3965 55.1837 34.3965 55.1837 34.3965C55.1837 34.3965 55.1837 34.3965 55.1837 34.3965C55.1837 34.3965 55.1837 34.3965 55.1837 34.3965C55.1837 34.3965 55.1837 34.3965 55.1837 34.3965C55.1837 34.3965 55.1837 34.3965 55.1837 34.3965C55.1837 34.3965 55.1837 34.3965 55.1837 34.3965C55.1837 34.3965 55.1837 34.3965 55.1837 34.3965C55.1837 34.3965 55.1837 34.3965 55.1837 34.3965C55.1837 34.3965 55.1837 34.3965 55.1837 34.3965C55.1837 34.3965 55.1837 34.3965 55.1837 34.3965C55.1837 34.3965 55.1837 34.3965 55.1837 34.3965C55.1837 34.3965 55.1837 34.3965 55.1837 34.3965C55.1837 34.3965 55.1837 34.3965 55.1837 34.3965C55.1837 34.3965 55.1837 34.3965 55.1837 34.3965C55.1837 34.3965 55.1837 34.3965 55.1837 34.3965C55.1837 34.3965 55.1837 34.3965 55.1837 34.3965C55.1837 34.3965 55.1837 34.3965 55.1837 34.3965C55.1837 34.3965 55.1837 34.3965 55.1837 34.3965C55.1837 34.3965 55.1837 34.3965 55.1837 34.3965C55.1837 34.3965 55.1837 34.3965 55.1837 34.3965C55.1837 34.4965 55.1837 34.5965 55.1837 34.5965C55.1837 34.5965 55.1837 34.5965 55.1837 34.5965C55.1837 34.5965 55.1837 34.5965 55.1837 34.5965C55.1837 34.5965 55.1837 34.5965 55.1837 34.5965C55.1837 34.5965 55.1837 34.5965 55.1837 34.5965C55.1837 34.5965 55.1837 34.5965 55.1837 34.5965C55.1837 34.5965 55.1837 34.5965 55.1837 34.5965C55.1837 34.5965 55.1837 34.5965 55.1837 34.5965C55.1837 34.5965 55.1837 34.5965 55.1837 34.5965C55.1837 34.5965 55.1837 34.5965 55.1837 34.5965C55.1837 34.5965 55.1837 34.5965 55.1837 34.5965C55.1837 34.5965 55.1837 34.5965 55.1837 34.5965C55.1837 34.5965 55.1837 34.5965 55.1837 34.5965C55.1837 34.5965 55.1837 34.5965 55.1837 34.5965C55.1837 34.5965 55.1837 34.5965 55.1837 34.5965C55.1837 34.5965 55.1837 34.5965 55.1837 34.5965C55.1837 34.5965 55.1837 34.5965 55.1837 34.5965C55.1837 34.5965 55.1837 34.5965 55.1837 34.5965C55.1837 34.5965 55.1837 34.5965 55.1837 34.5965C55.1837 34.5965 55.1837 34.5965 55.1837 34.5965C55.1837 34.5965 55.1837 34.5965 55.1837 34.5965C55.1837 34.5965 55.1837 34.5965 55.1837 34.5965C55.1837 34.5965 55.1837 34.5965 55.1837 34.5965C55.1837 34.5965 55.1837 34.5965 55.1837 34.5965C55.1837 34.5965 55.1837 34.5965 55.1837 34.5965C55.1837 34.5965 55.1837 34.5965 55.1837 34.5965C55.1837 34.5965 55.1837 34.5965 55.1837 34.5965C55.1837 34.5965 55.1837 34.5965 55.1837 34.5965C55.1837 34.5965 55.1837 34.5965 55.1837 34.5965C55.1837 34.5965 55.1837 34.5965 55.1837 34.5965C55.1837 34.5965 55.1837 34.5965 55.1837 34.5965C55.1837 34.5965 55.1837 34.5965 55.1837 34.5965C55.1837 34.5965 55.1837 34.5965 55.1837 34.5965C55.1837 34.5965 55.1837 34.5965 55.1837 34.5965C55.1837 34.5965 55.1837 34.5965 55.1837 34.5965C55.1837 34.5965 55.1837 34.5965 55.1837 34.5965C55.1837 34.5965 55.1837 34.5965 55.1837 34.5965C55.1837 34.5965 55.1837 34.5965 55.1837 34.5965C55.1837 34.5965 55.1837 34.5965 55.1837 34.5965C55.1837 34.5965 55.1837 34.5965 55.1837 34.5965C55.1837 34.5965 55.1837 34.5965 55.1837 34.5965C55.1837 34.5965 55.1837 34.5965 55.1837 34.5965C55.1837 34.5965 55.1837 34.5965 55.1837 34.5965C55.1837 34.5965 55.1837 34.5965 55.1837 34.5965C55.1837 34.5965 55.1837 34.5965 55.1837 34.5965C55.1837 34.5965 55.1837 34.5965 55.1837 34.5965C55.1837 34.5965 55.1837 34.5965 55.1837 34.5965C55.1837 34.5965 55.1837 34.5965 55.1837 34.5965C55.1837 34.5965 55.1837 34.5965 55.1837 34.5965C55.1837 34.5965 55.1837 34.5965 55.1837 34.5965C55.1837 34.5965 55.1837 34.5965 55.1837 34.5965C55.1837 34.5965 55.1837 34.5965 55.1837 34.5965C55.1837 34.5965 55.1837 34.5965 55.1837 34.5965C55.1837 34.5965 55.1837 34.5965 55.1837 34.5965C55.1837 34.5965 55.1837 34.5965 55.1837 34.5965C55.1837 34.5965 55.1837 34.5965 55.1837 34.5965C55.1837 34.5965 55.1837 34.5965 55.1837 34.5965C55.1837 34.5965 55.1837 34.5965 55.1837 34.5965C55.1837 34.5965 55.1837 34.5965 55.1837 34.5965C55.1837 34.5965 55.1837 34.5965 55.1837 34.5965C55.1837 34.5965 55.1837 34.5965 55.1837 34.5965C55.1837 34.5965 55.1837 34.5965 55.1837 34.5965C55.1837 34.5965 55.1837 34.5965 55.1837 34.5965C55.1837 34.5965 55.1837 34.5965 55.1837 34.5965C55.1837 34.5965 55.1837 34.5965 55.1837 34.5965C55.1837 34.5965 55.1837 34.5965 55.1837 34.5965C55.1837 34.5965 55.1837 34.5965 55.1837 34.5965C55.1837 34.5965 55.1837 34.5965 55.1837 34.5965C55.1837 34.5965 55.1837 34.5965 55.1837 34.5965C55.1837 34.5965 55.1837 34.5965 55.1837 34.5965C55.1837 34.5965 55.1837 34.5965 55.1837 34.5965C55.1837 34.5965 55.1837 34.5965 55.1837 34.5965C55.1837 34.5965 55.1837 34.5965 55.1837 34.5965C55.1837 34.5965 55.1837 34.5965 55.1837 34.5965C55.1837 34.5965 55.1837 34.5965 55.1837 34.5965C55.1837 34.5965 55.1837 34.5965 55.1837 34.5965C55.1837 34.5965 55.1837 34.5965 55.1837 34.5965C55.1837 34.5965 55.1837 34.5965 55.1837 34.5965C55.1837 34.5965 55.1837 34.5965 55.1837 34.5965C55.1837 34.5965 55.1837 34.5965 55.1837 34.5965C55.1837 34.5965 55.1837 34.5965 55.1837 34.5965C55.1837 34.5965 55.1837 34.5965 55.1837 34.5965C55.1837 34.5965 55.1837 34.5965 55.1837 34.5965C55.1837 34.5965 55.1837 34.5965 55.1837 34.5965C55.1837 34.5965 55.1837 34.5965 55.1837 34.5965C55.1837 34.5965 55.1837 34.5965 55.1837 34.5965C55.1837 34.5965 55.1837 34.5965 55.1837 34.5965C55.1837 34.5965 55.1837 34.5965 55.1837 34.5965C55.1837 34.5965 55.1837 34.5965 55.1837 34.5965C55.1837 34.5965 55.1837 34.5965 55.1837 34.5965C55.1837 34.5965 55.1837 34.5965 55.1837 34.5965C55.1837 34.5965 55.1837 34.5965 55.1837 34.5965C55.1837 34.5965 55.1837 34.5965 55.1837 34.5965C55.1837 34.5965 55.1837 34.5965 55.1837 34.5965C55.1837 34.5965 55.1837 34.5965 55.1837 34.5965C55.1837 34.5965 55.1837 34.5965 55.1837 34.5965C55.1837 34.5965 55.1837 34.5965 55.1837 34.5965C55.1837 34.5965 55.1837 34.5965 55.1837 34.5965C55.1837 34.5965 55.1837 34.5965 55.1837 34.5965C55.1837 34.5965 55.1837 34.5965 55.1837 34.5965C55.1837 34.5965 55.1837 34.5965 55.1837 34.5965C55.1837 34.5965 55.1837 34.5965 55.1837 34.5965C55.1837 34.5965 55.1837 34.5965 55.1837 34.5965C55.1837 34.5965 55.1837 34.5965 55.1837 34.5965C55.1837 34.5965 55.1837 34.5965 55.1837 34.5965C55.1837 34.5965 55.1837 34.5965 55.1837 34.5965C55.1837 34.5965 55.1837 34.5965 55.1837 34.5965C55.1837 34.5965 55.1837 34.5965 55.1837 34.5965C55.1837 34.5965 55.1837 34.5965 55.1837 34.5965C55.1837 34.5965 55.1837 34.5965 55.1837 34.5965C55.1837 34.5965 55.1837 34.5965 55.1837 34.5965C55.1837 34.5965 55.1837 34.5965 55.1837 34.5965C55.1837 34.5965 55.1837 34.5965 55.1837 34.5965C55.1837 34.5965 55.1837 34.5965 55.1837 34.5965C55.1837 34.5965 55.1837 34.5965 55.1837 34.5965C55.1837 34.5965 55.1837 34.5965 55.1837 34.5965C55.1837 34.5965 55.1837 34.5965 55.1837 34.5965C55.1837 34.5965 55.1837 34.5965 55.1837 34.5965C55.1837 34.5965 55.1837 34.5965 55.1837 34.5965C55.1837 34.5965 55.1837 34.5965 55.1837 34.5965C55.1837 34.5965 55.1837 34.5965 55.1837 34.5965C55.1837 34.5965 55.1837 34.5965 55.1837 34.5965C55.1837 34.5965 55.1837 34.5965 55.1837 34.5965C55.1837 34.5965 55.1837 34.5965 55.1837 34.5965C55.1837 34.5965 55.1837 34.5965 55.1837 34.5965C55.1837 34.5965 55.1837 34.5965 55.1837 34.5965C55.1837 34.5965 55.1837 34.5965 55.1837 34.5965C55.1837 34.5965 55.1837 34.5965 55.1837 34.5965C55.1837 34.5965 55.1837 34.5965 55.1837 34.5965C55.1837 34.5965 55.1837 34.5965 55.1837 34.5965C55.1837 34.5965 55.1837 34.5965 55.1837 34.5965C55.1837 34.5965 55.1837 34.5965 55.1837 34.5965C55.1837 34.5965 55.1837 34.5965 55.1837 34.5965C55.1837 34.5965 55.1837 34.5965 55.1837 34.5965C55.1837 34.5965 55.1837 34.5965 55.1837 34.5965C55.1837 34.5965 55.1837 34.5965 55.1837 34.5965C55.1837 34.5965 55.1837 34.5965 55.1837 34.5965C55.1837 34.5965 55.1837 34.5965 55.1837 34.5965C55.1837 34.5965 55.1837 34.5965 55.1837 34.5965C55.1837 34.5965 55.1837 34.5965 55.1837 34.5965C55.1837 34.5965 55.1837 34.5965 55.1837 34.5965C55.1837 34.5965 55.1837 34.5965 55.1837 34.5965C55.1837 34.5965 55.1837 34.5965 55.1837 34.5965C55.1838 34.5965 55.1838 34.5965 55.1838 34.5965C55.1838 34.5965 55.1838 34.5965 55.1838 34.5965C55.1838 34.5965 55.1838 34.5965 55.1838 34.5965C55.1838 34.5965 55.1838 34.5965 55.1838 34.5965C55.1838 34.5965 55.1838 34.5965 55.1838 34.5965C55.1838 34.5965 55.1838 34.5965 55.1838 34.5965C55.1838 34.5965 55.1838 34.5965 55.1838 34.5965C55.1838 34.5965 55.1838 34.5965 55.1838 34.5965C55.1838 34.5965 55.1838 34.5965 55.1838 34.5965C55.1838 34.5965 55.1838 34.5965 55.1838 34.5965C55.1838 34.5965 55.1838 34.5965 55.1838 34.5965C55.1838 34.5965 55.1838 34.5965 55.1838 34.5965C55.1838 34.5965 55.1838 34.5965 55.1838 34.5965C55.1838 34.5965 55.1838 34.5965 55.1838 34.5965C55.1838 34.5965 55.1838 34.5965 55.1838 34.5965C55.1838 34.5965 55.1838 34.5965 55.1838 34.5965C55.1838 34.5965 55.1838 34.5965 55.1838 34.5965C55.1838 34.5965 55.1838 34.5965 55.1838 34.5965C55.1838 34.5965 55.1838 34.5965 55.1838 34.5965C55.1838 34.5965 55.1838 34.5965 55.1838 34.5965C55.1838 34.5965 55.1838 34.5965 55.1838 34.5965C55.1838 34.5965 55.1838 34.5965 55.1838 34.5965C55.1838 34.5965 55.1838 34.5965 55.1838 34.5965C55.1838 34.5965 55.1838 34.5965 55.1838 34.5965C55.1838 34.5965 55.1838 34.5965 55.1838 34.5965C55.1838 34.5965 55.1838 34.5965 55.1838 34.5965C55.1838 34.5965 55.1838 34.5965 55.1838 34.5965C55.1838 34.5965 55.1838 34.5965 55.1838 34.5965C55.1838 34.5965 55.1838 34.5965 55.1838 34.5965C55.1838 34.5965 55.1838 34.5965 55.1838 34.5965C55.1838 34.5965 55.1838 34.5965 55.1838 34.5965C55.1838 34.5965 55.1838 34.5965 55.1838 34.5965C55.1838 34.5965 55.1838 34.5965 55.1838 34.5965C55.1838 34.5965 55.1838 34.5965 55.1838 34.5965C55.1838 34.5965 55.1838 34.5965 55.1838 34.5965C55.1838 34.5965 55.1838 34.5965 55.1838 34.5965C55.1838 34.5965 55.1838 34.5965 55.1838 34.5965C55.1838 34.5965 55.1838 34.5965 55.1838 34.5965C55.1838 34.5965 55.1838 34.5965 55.1838 34.5965C55.1838 34.5965 55.1838 34.5965 55.1838 34.5965C55.1838 34.5965 55.1838 34.5965 55.1838 34.5965C55.1838 34.5965 55.1838 34.5965 55.1838 34.5965C55.1838 34.5965 55.1838 34.5965 55.1838 34.5965C55.1838 34.5965 55.1838 34.5965 55.1838 34.5965C55.1838 34.5965 55.1838 34.5965 55.1838 34.5965C55.1838 34.5965 55.1838 34.5965 55.1838 34.5965C55.1838 34.5965 55.1838 34.5965 55.1838 34.5965C55.1838 34.5965 55.1838 34.5965 55.1838 34.5965C55.1838 34.5965 55.1838 34.5965 55.1838 34.5965C55.1838 34.5965 55.1838 34.5965 55.1838 34.5965C55.1838 34.5965 55.1838 34.5965 55.1838 34.5965C55.1838 34.5965 55.1838 34.5965 55.1838 34.5965C55.1838 34.5965 55.1838 34.5965 55.1838 34.5965C55.1838 34.5965 55.1838 34.5965 55.1838 34.5965C55.1838 34.5965 55.1838 34.5965 55.1838 34.5965C55.1838 34.5965 55.1838 34.5965 55.1838 34.5965C55.1838 34.5965 55.1838 34.5965 55.1838 34.5965C55.1838 34.5965 55.1838 34.5965 55.1838 34.5965C55.1838 34.5965 55.1838 34.5965 55.1838 34.5965C55.1838 34.5965 55.1838 34.5965 55.1838 34.5965C55.1838 34.5965 55.1838 34.5965 55.1838 34.5965C55.1838 34.5965 55.1838 34.5965 55.1838 34.5965C55.1838 34.5965 55.1838 34.5965 55.1838 34.5965C55.1838 34.5965 55.1838 34.5965 55.1838 34.5965C55.1838 34.5965 55.1838 34.5965 55.1838 34.5965C55.1838 34.5965 55.1838 34.5965 55.1838 34.5965C55.1838 34.5965 55.1838 34.5965 55.1838 34.5965C55.1838 34.5965 55.1838 34.5965 55.1838 34.5965C55.1838 34.5965 55.1838 34.5965 55.1838 34.5965C55.1838 34.5965 55.1838 34.5965 55.1838 34.5965C55.1838 34.5965 55.1838 34.5965 55.1838 34.5965C55.1838 34.5965 55.1838 34.5965 55.1838 34.5965C55.1838 34.5965 55.1838 34.5965 55.1838 34.5965C55.1838 34.5965 55.1838 34.5965 55.1838 34.5965C55.1838 34.5965 55.1838 34.5965 55.1838 34.5965C55.1838 34.5965 55.1838 34.5965 55.1838 34.5965C55.1838 34.5965 55.1838 34.5965 55.1838 34.5965C55.1838 34.5965 55.1838 34.5965 55.1838 34.5965C55.1838 34.5965 55.1838 34.5965 55.1838 34.5965C55.1838 34.5965 55.1838 34.5965 55.1838 34.5965C55.1838 34.5965 55.1838 34.5965 55.1838 34.5965C55.1838 34.5965 55.1838 34.5965 55.1838 34.5965C55.1838 34.5965 55.1838 34.5965 55.1838 34.5965C55.1838 34.5965 55.1838 34.5965 55.1838 34.5965C55.1838 34.5965 55.1838 34.5965 55.1838 34.5965C55.1838 34.5965 55.1838 34.5965 55.1838 34.5965C55.1838 34.5965 55.1838 34.5965 55.1838 34.5965C55.1838 34.5965 55.1838 34.5965 55.1838 34.5965C55.1838 34.5965 55.1838 34.5965 55.1838 34.5965C55.1838 34.5965 55.1838 34.5965 55.1838 34.5965C55.1838 34.5965 55.1838 34.5965 55.1838 34.5965C55.1838 34.5965 55.1838 34.5965 55.1838 34.5965C55.1838 34.5965 55.1838 34.5965 55.1838 34.5965C55.1838 34.5965 55.1838 34.5965 55.1838 34.5965C55.1838 34.5965 55.1838 34.5965 55.1838 34.5965C55.1838 34.5965 55.1838 34.5965 55.1838 34.5965C55.1838 34.5965 55.1838 34.5965 55.1838 34.5965C55.1838 34.5965 55.1838 34.5965 55.1838 34.5965C55.1838 34.5965 55.1838 34.5965 55.1838 34.5965C55.1838 34.5965 55.1838 34.5965 55.1838 34.5965C55.1838 34.5965 55.1838 34.5965 55.1838 34.5965C55.1838 34.5965 55.1838 34.5965 55.1838 34.5965C55.1838 34.5965 55.1838 34.5965 55.1838 34.5965C55.1838 34.5965 55.1838 34.5965 55.1838 34.5965C55.1838 34.5965 55.1838 34.5965 55.1838 34.5965C55.1838 34.5965 55.1838 34.5965 55.1838 34.5965C55.1838 34.5965 55.1838 34.5965 55.1838 34.5965C55.1838 34.5965 55.1838 34.5965 55.1838 34.5965C55.1838 34.5965 55.1838 34.5965 55.1838 34.5965C55.1838 34.5965 55.1838 34.5965 55.1838 34.5965C55.1838 34.5965 55.1838 34.5965 55.1838 34.5965C55.1838 34.5965 55.1838 34.5965 55.1838 34.5965C55.1838 34.5965 55.1838 34.5965 55.1838 34.5965C55.1838 34.5965 55.1838 34.5965 55.1838 34.5965C55.1838 34.5965 55.1838 34.5965 55.1838 34.5965C55.1838 34.5965 55.1838 34.5965 55.1838 34.5965C55.1838 34.5965 55.1838 34.5965 55.1838 34.5965C55.1838 34.5965 55.1838 34.5965 55.1838 34.5965C55.1838 34.5965 55.1838 34.5965 55.1838 34.5965C55.1838 34.5965 55.1838 34.5965 55.1838 34.5965C55.1838 34.5965 55.1838 34.5965 55.1838 34.5965C55.1838 34.5965 55.1838 34.5965 55.1838 34.5965C55.1838 34.5965 55.1838 34.5965 55.1838 34.5965C55.1838 34.5965 55.1838 34.5965 55.1838 34.5965C55.1838 34.5965 55.1838 34.5965 55.1838 34.5965C55.1838 34.5965 55.1838 34.5965 55.1838 34.5965C55.1838 34.5965 55.1838 34.5965 55.1838 34.5965C55.1838 34.5965 55.1838 34.5965 55.1838 34.5965C55.1838 34.5965 55.1838 34.5965 55.1838 34.5965C55.1838 34.5965 55.1838 34.5965 55.1838 34.5965C55.1838 34.5965 55.1838 34.5965 55.1838 34.5965C55.1838 34.5965 55.1838 34.5965 55.1838 34.5965C55.1838 34.5965 55.1838 34.5965 55.1838 34.5965C55.1838 34.5965 55.1838 34.5965 55.1838 34.5965C55.1838 34.5965 55.1838 34.5965 55.1838 34.5965C55.1838 34.5965 55.1838 34.5965 55.1838 34.5965C55.1838 34.5965 55.1838 34.5965 55.1838 34.5965C55.1838 34.5965 55.1838 34.5965 55.1838 34.5965C55.1838 34.5965 55.1838 34.5965 55.1838 34.5965C55.1838 34.5965 55.1838 34.5965 55.1838 34.5965C55.1838 34.5965 55.1838 34.5965 55.1838 34.5965C55.1838 34.5965 55.1838 34.5965 55.1838 34.5965C55.1838 34.5965 55.1838 34.5965 55.1838 34.5965C55.1838 34.5965 55.1838 34.5965 55.1838 34.5965C55.1838 34.5965 55.1838 34.5965 55.1838 34.5965C55.1838 34.5965 55.1838 34.5965 55.1838 34.5965C55.1838 34.5965 55.1838 34.5965 55.1838 34.5965C55.1838 34.5965 55.1838 34.5965 55.1838 34.5965C55.1838 34.5965 55.1838 34.5965 55.1838 34.5965C55.1838 34.5965 55.1838 34.5965 55.1838 34.5965C55.1838 34.5965 55.1838 34.5965 55.1838 34.5965C55.1838 34.5965 55.1838 34.5965 55.1838 34.5965C55.1838 34.5965 55.1838 34.4965 55.1838 34.3965C55.1838 34.3965 55.1838 34.3965 55.1838 34.3965C55.1838 34.3965 55.1838 34.3965 55.1838 34.3965C55.1838 34.3965 55.1838 34.3965 55.1838 34.3965C55.1838 34.3965 55.1838 34.3965 55.1838 34.3965C55.1838 34.3965 55.1838 34.3965 55.1838 34.3965C55.1838 34.3965 55.1838 34.3965 55.1838 34.3965C55.1838 34.3965 55.1838 34.3965 55.1838 34.3965C55.1838 34.3965 55.1838 34.3965 55.1838 34.3965C55.1838 34.3965 55.1838 34.3965 55.1838 34.3965C55.1838 34.3965 55.1838 34.3965 55.1838 34.3965C55.1838 34.3965 55.1838 34.3965 55.1838 34.3965C55.1838 34.3965 55.1838 34.3965 55.1838 34.3965C55.1838 34.3965 55.1838 34.3965 55.1838 34.3965C55.1838 34.3965 55.1838 34.3965 55.1838 34.3965C55.1838 34.3965 55.1838 34.3965 55.1838 34.3965C55.1838 34.3965 55.1838 34.3965 55.1838 34.3965C55.1838 34.3965 55.1838 34.3965 55.1838 34.3965C55.1838 34.3965 55.1838 34.3965 55.1838 34.3965C55.1838 34.3965 55.1838 34.3965 55.1838 34.3965C55.1838 34.3965 55.1838 34.3965 55.1838 34.3965C55.1838 34.3965 55.1838 34.3965 55.1838 34.3965C55.1838 34.3965 55.1838 34.3965 55.1838 34.3965C55.1838 34.3965 55.1838 34.3965 55.1838 34.3965C55.1838 34.3965 55.1838 34.3965 55.1838 34.3965C55.1838 34.3965 55.1838 34.3965 55.1838 34.3965C55.1838 34.3965 55.1838 34.3965 55.1838 34.3965C55.1838 34.3965 55.1838 34.3965 55.1838 34.3965C55.1838 34.3965 55.1838 34.3965 55.1838 34.3965C55.1838 34.3965 55.1838 34.3965 55.1838 34.3965C55.1838 34.3965 55.1838 34.3965 55.1838 34.3965C55.1838 34.3965 55.1838 34.3965 55.1838 34.3965C55.1838 34.3965 55.1838 34.3965 55.1838 34.3965C55.1838 34.3965 55.1838 34.3965 55.1838 34.3965C55.1838 34.3965 55.1838 34.3965 55.1838 34.3965C55.1838 34.3965 55.1838 34.3965 55.1838 34.3965C55.1838 34.3965 55.1838 34.3965 55.1838 34.3965C55.1838 34.3965 55.1838 34.3965 55.1838 34.3965C55.1838 34.3965 55.1838 34.3965 55.1838 34.3965C55.1838 34.3965 55.1838 34.3965 55.1838 34.3965C55.1838 34.3965 55.1838 34.3965 55.1838 34.3965C55.1838 34.3965 55.1838 34.3965 55.1838 34.3965C55.1838 34.3965 55.1838 34.3965 55.1838 34.3965C55.1838 34.3965 55.1838 34.3965 55.1838 34.3965C55.1838 34.3965 55.1838 34.3965 55.1838 34.3965C55.1838 34.3965 55.1838 34.3965 55.1838 34.3965C55.1838 34.3965 55.1838 34.3965 55.1838 34.3965C55.1838 34.3965 55.1838 34.3965 55.1838 34.3965C55.1838 34.3965 55.1838 34.3965 55.1838 34.3965C55.1838 34.3965 55.1838 34.3965 55.1838 34.3965C55.1838 34.3965 55.1838 34.3965 55.1838 34.3965C55.1838 34.3965 55.1838 34.3965 55.1838 34.3965C55.1838 34.3965 55.1838 34.3965 55.1838 34.3965C55.1838 34.3965 55.1838 34.3965 55.1838 34.3965C55.1838 34.3965 55.1838 34.3965 55.1838 34.3965C55.1838 34.3965 55.1838 34.3965 55.1838 34.3965C55.1838 34.3965 55.1838 34.3965 55.1838 34.3965C55.1838 34.3965 55.1838 34.3965 55.1838 34.3965C55.1838 34.3965 55.1838 34.3965 55.1838 34.3965C55.1838 34.3965 55.1838 34.3965 55.1838 34.3965C55.1838 34.3965 55.1838 34.3965 55.1838 34.3965C55.1838 34.3965 55.1838 34.3965 55.1838 34.3965C55.1838 34.3965 55.1838 34.3965 55.1838 34.3965C55.1838 34.3965 55.1838 34.3965 55.1838 34.3965C55.1838 34.3965 55.1838 34.3965 55.1838 34.3965C55.1838 34.3965 55.1838 34.3965 55.1838 34.3965C55.1838 34.3965 55.1838 34.3965 55.1838 34.3965C55.1838 34.3965 55.1838 34.3965 55.1838 34.3965C55.1838 34.3965 55.1838 34.3965 55.1838 34.3965C55.1838 34.3965 55.1838 34.3965 55.1838 34.3965C55.1838 34.3965 55.1838 34.3965 55.1838 34.3965C55.1838 34.3965 55.1838 34.3965 55.1838 34.3965C55.1838 34.3965 55.1838 34.3965 55.1838 34.3965C55.1838 34.3965 55.1838 34.3965 55.1838 34.3965C55.1838 34.3965 55.1838 34.3965 55.1838 34.3965C55.1838 34.3965 55.1838 34.3965 55.1838 34.3965C55.1838 34.3965 55.1838 34.3965 55.1838 34.3965C55.1838 34.3965 55.1838 34.3965 55.1838 34.3965C55.1838 34.3965 55.1838 34.3965 55.1838 34.3965C55.1838 34.3965 55.1838 34.3965 55.1838 34.3965C55.1838 34.3965 55.1838 34.3965 55.1838 34.3965C55.1838 34.3965 55.1838 34.3965 55.1838 34.3965C55.1838 34.3965 55.1838 34.3965 55.1838 34.3965C55.1838 34.3965 55.1838 34.3965 55.1838 34.3965C55.1838 34.3965 55.1838 34.3965 55.1838 34.3965C55.1838 34.3965 55.1838 34.3965 55.1838 34.3965C55.1838 34.3965 55.1838 34.3965 55.1838 34.3965C55.1838 34.3965 55.1838 34.3965 55.1838 34.3965C55.1838 34.3965 55.1838 34.3965 55.1838 34.3965C55.1838 34.3965 55.1838 34.3965 55.1838 34.3965C55.1838 34.3965 55.1838 34.3965 55.1838 34.3965C55.1838 34.3965 55.1838 34.3965 55.1838 34.3965C55.1838 34.3965 55.1838 34.3965 55.1838 34.3965C55.1838 34.3965 55.1838 34.3965 55.1838 34.3965C55.1838 34.3965 55.1838 34.3965 55.1838 34.3965C55.1838 34.3965 55.1838 34.3965 55.1838 34.3965C55.1838 34.3965 55.1838 34.3965 55.1838 34.3965C55.1838 34.3965 55.1838 34.3965 55.1838 34.3965C55.1838 34.3965 55.1838 34.3965 55.1838 34.3965C55.1838 34.3965 55.1838 34.3965 55.1838 34.3965C55.1838 34.3965 55.1838 34.3965 55.1838 34.3965C55.1838 34.3965 55.1838 34.3965 55.1838 34.3965C55.1838 34.3965 55.1838 34.3965 55.1838 34.3965C55.1838 34.3965 55.1838 34.3965 55.1838 34.3965C55.1838 34.3965 55.1838 34.3965 55.1838 34.3965C55.1838 34.3965 55.1838 34.3965 55.1838 34.3965C55.1838 34.3965 55.1838 34.3965 55.1838 34.3965C55.1838 34.3965 55.1838 34.3965 55.1838 34.3965C55.1838 34.3965 55.1838 34.3965 55.1838 34.3965C55.1838 34.3965 55.1838 34.3965 55.1838 34.3965C55.1838 34.3965 55.1838 34.3965 55.1838 34.3965V34.5965C55.1838 34.5965 55.1838 34.5965 55.1838 34.5965C55.1838 34.5965 55.1838 34.5965 55.1838 34.5965C55.1838 34.5965 55.1838 34.5965 55.1838 34.5965C55.1838 34.5965 55.1838 34.5965 55.1838 34.5965C55.1838 34.5965 55.1838 34.5965 55.1838 34.5965C55.1838 34.5965 55.1838 34.5965 55.1838 34.5965C55.1838 34.5965 55.1838 34.5965 55.1838 34.5965C55.1838 34.5965 55.1838 34.5965 55.1838 34.5965C55.1838 34.5965 55.1838 34.5965 55.1838 34.5965C55.1838 34.5965 55.1838 34.5965 55.1838 34.5965C55.1838 34.5965 55.1838 34.5965 55.1838 34.5965C55.1838 34.5965 55.1838 34.5965 55.1838 34.5965C55.1838 34.5965 55.1838 34.5965 55.1838 34.5965C55.1838 34.5965 55.1838 34.5965 55.1838 34.5965C55.1838 34.5965 55.1838 34.5965 55.1838 34.5965C55.1838 34.5965 55.1838 34.5965 55.1838 34.5965C55.1838 34.5965 55.1838 34.5965 55.1838 34.5965C55.1838 34.5965 55.1838 34.5965 55.1838 34.5965C55.1838 34.5965 55.1838 34.5965 55.1838 34.5965C55.1838 34.5965 55.1838 34.5965 55.1838 34.5965C55.1838 34.5965 55.1838 34.5965 55.1838 34.5965C55.1838 34.5965 55.1838 34.5965 55.1838 34.5965C55.1838 34.5965 55.1838 34.5965 55.1838 34.5965C55.1838 34.5965 55.1838 34.5965 55.1838 34.5965C55.1838 34.5965 55.1838 34.5965 55.1838 34.5965C55.1838 34.5965 55.1838 34.5965 55.1838 34.5965C55.1838 34.5965 55.1838 34.5965 55.1838 34.5965C55.1838 34.5965 55.1838 34.5965 55.1838 34.5965C55.1838 34.5965 55.1838 34.5965 55.1838 34.5965C55.1838 34.5965 55.1838 34.5965 55.1838 34.5965C55.1838 34.5965 55.1838 34.5965 55.1838 34.5965C55.1838 34.5965 55.1838 34.5965 55.1838 34.5965C55.1838 34.5965 55.1838 34.5965 55.1838 34.5965C55.1838 34.5965 55.1838 34.5965 55.1838 34.5965C55.1838 34.5965 55.1838 34.5965 55.1838 34.5965C55.1838 34.5965 55.1838 34.5965 55.1838 34.5965C55.1838 34.5965 55.1838 34.5965 55.1838 34.5965C55.1838 34.5965 55.1838 34.5965 55.1838 34.5965C55.1838 34.5965 55.1838 34.5965 55.1838 34.5965C55.1838 34.5965 55.1838 34.5965 55.1838 34.5965C55.1838 34.5965 55.1838 34.5965 55.1838 34.5965C55.1838 34.5965 55.1838 34.5965 55.1838 34.5965C55.1838 34.5965 55.1838 34.5965 55.1838 34.5965C55.1838 34.5965 55.1838 34.5965 55.1838 34.5965C55.1838 34.5965 55.1838 34.5965 55.1838 34.5965C55.1838 34.5965 55.1838 34.5965 55.1838 34.5965C55.1838 34.5965 55.1838 34.5965 55.1838 34.5965C55.1838 34.5965 55.1838 34.5965 55.1838 34.5965C55.1838 34.5965 55.1838 34.5965 55.1838 34.5965C55.1838 34.5965 55.1838 34.5965 55.1838 34.5965C55.1838 34.5965 55.1838 34.5965 55.1838 34.5965C55.1838 34.5965 55.1838 34.5965 55.1838 34.5965C55.1838 34.5965 55.1838 34.5965 55.1838 34.5965C55.1838 34.5965 55.1838 34.5965 55.1838 34.5965C55.1838 34.5965 55.1838 34.5965 55.1838 34.5965C55.1838 34.5965 55.1838 34.5965 55.1838 34.5965C55.1838 34.5965 55.1838 34.5965 55.1838 34.5965C55.1838 34.5965 55.1838 34.5965 55.1838 34.5965C55.1838 34.5965 55.1838 34.5965 55.1838 34.5965C55.1838 34.5965 55.1838 34.5965 55.1838 34.5965C55.1838 34.5965 55.1838 34.5965 55.1838 34.5965C55.1838 34.5965 55.1838 34.5965 55.1838 34.5965C55.1838 34.5965 55.1838 34.5965 55.1838 34.5965C55.1838 34.5965 55.1838 34.5965 55.1838 34.5965C55.1838 34.5965 55.1838 34.5965 55.1838 34.5965C55.1838 34.5965 55.1838 34.5965 55.1838 34.5965C55.1838 34.5965 55.1838 34.5965 55.1838 34.5965C55.1838 34.5965 55.1838 34.5965 55.1838 34.5965C55.1838 34.5965 55.1838 34.5965 55.1838 34.5965C55.1838 34.5965 55.1838 34.5965 55.1838 34.5965C55.1838 34.5965 55.1838 34.5965 55.1838 34.5965C55.1838 34.5965 55.1838 34.5965 55.1838 34.5965C55.1838 34.5965 55.1838 34.5965 55.1838 34.5965C55.1838 34.5965 55.1838 34.5965 55.1838 34.5965C55.1838 34.5965 55.1838 34.5965 55.1838 34.5965C55.1838 34.5965 55.1838 34.5965 55.1838 34.5965C55.1838 34.5965 55.1838 34.5965 55.1838 34.5965C55.1838 34.5965 55.1838 34.5965 55.1838 34.5965C55.1838 34.5965 55.1838 34.5965 55.1838 34.5965C55.1838 34.5965 55.1838 34.5965 55.1838 34.5965C55.1838 34.5965 55.1838 34.5965 55.1838 34.5965C55.1838 34.5965 55.1838 34.5965 55.1838 34.5965C55.1838 34.5965 55.1838 34.5965 55.1838 34.5965C55.1838 34.5965 55.1838 34.5965 55.1838 34.5965C55.1838 34.5965 55.1838 34.5965 55.1838 34.5965C55.1838 34.5965 55.1838 34.5965 55.1838 34.5965C55.1838 34.5965 55.1838 34.5965 55.1838 34.5965C55.1838 34.5965 55.1838 34.5965 55.1838 34.5965C55.1838 34.5965 55.1838 34.5965 55.1838 34.5965C55.1838 34.5965 55.1838 34.5965 55.1838 34.5965C55.1838 34.5965 55.1838 34.5965 55.1838 34.5965C55.1838 34.5965 55.1838 34.5965 55.1838 34.5965C55.1838 34.5965 55.1838 34.5965 55.1838 34.5965C55.1838 34.5965 55.1838 34.5965 55.1838 34.5965C55.1838 34.5965 55.1838 34.5965 55.1838 34.5965C55.1838 34.5965 55.1838 34.5965 55.1838 34.5965C55.1838 34.5965 55.1838 34.5965 55.1838 34.5965C55.1838 34.5965 55.1838 34.5965 55.1838 34.5965C55.1838 34.5965 55.1838 34.5965 55.1838 34.5965C55.1838 34.5965 55.1838 34.5965 55.1838 34.5965C55.1838 34.5965 55.1838 34.5965 55.1838 34.5965C55.1838 34.5965 55.1838 34.5965 55.1838 34.5965C55.1838 34.5965 55.1838 34.5965 55.1838 34.5965C55.1838 34.5965 55.1838 34.5965 55.1838 34.5965C55.1838 34.5965 55.1838 34.5965 55.1838 34.5965C55.1838 34.5965 55.1838 34.5965 55.1838 34.5965C55.1838 34.5965 55.1838 34.5965 55.1838 34.5965C55.1838 34.5965 55.1838 34.5965 55.1838 34.5965C55.1838 34.5965 55.1838 34.5965 55.1838 34.5965C55.1838 34.5965 55.1838 34.5965 55.1838 34.5965C55.1838 34.4965 55.1838 34.3965 55.1838 34.3965C55.1838 34.3965 55.1838 34.3965 55.1838 34.3965C55.1838 34.3965 55.1838 34.3965 55.1838 34.3965C55.1838 34.3965 55.1838 34.3965 55.1838 34.3965C55.1838 34.3965 55.1838 34.3965 55.1838 34.3965C55.1838 34.3965 55.1838 34.3965 55.1838 34.3965C55.1838 34.3965 55.1838 34.3965 55.1838 34.3965C55.1838 34.3965 55.1838 34.3965 55.1838 34.3965C55.1838 34.3965 55.1838 34.3965 55.1838 34.3965C55.1838 34.3965 55.1838 34.3965 55.1838 34.3965C55.1838 34.3965 55.1838 34.3965 55.1838 34.3965C55.1838 34.3965 55.1838 34.3965 55.1838 34.3965C55.1838 34.3965 55.1838 34.3965 55.1838 34.3965C55.1838 34.3965 55.1838 34.3965 55.1838 34.3965C55.1838 34.3965 55.1838 34.3965 55.1838 34.3965C55.1838 34.3965 55.1838 34.3965 55.1838 34.3965C55.1838 34.3965 55.1838 34.3965 55.1838 34.3965C55.1838 34.3965 55.1838 34.3965 55.1838 34.3965C55.1838 34.3965 55.1838 34.3965 55.1838 34.3965C55.1838 34.3965 55.1838 34.3965 55.1838 34.3965C55.1838 34.3965 55.1838 34.3965 55.1838 34.3965C55.1838 34.3965 55.1838 34.3965 55.1838 34.3965C55.1838 34.3965 55.1838 34.3965 55.1838 34.3965C55.1838 34.3965 55.1838 34.3965 55.1838 34.3965C55.1838 34.3965 55.1838 34.3965 55.1838 34.3965C55.1838 34.3965 55.1838 34.3965 55.1838 34.3965C55.1838 34.3965 55.1838 34.3965 55.1838 34.3965C55.1838 34.3965 55.1838 34.3965 55.1838 34.3965C55.1838 34.3965 55.1838 34.3965 55.1838 34.3965C55.1838 34.3965 55.1838 34.3965 55.1838 34.3965C55.1838 34.3965 55.1838 34.3965 55.1838 34.3965C55.1838 34.3965 55.1838 34.3965 55.1838 34.3965C55.1838 34.3965 55.1838 34.3965 55.1838 34.3965C55.1838 34.3965 55.1838 34.3965 55.1838 34.3965C55.1838 34.3965 55.1838 34.3965 55.1838 34.3965C55.1838 34.3965 55.1838 34.3965 55.1838 34.3965C55.1838 34.3965 55.1838 34.3965 55.1838 34.3965C55.1838 34.3965 55.1838 34.3965 55.1838 34.3965C55.1838 34.3965 55.1838 34.3965 55.1838 34.3965C55.1838 34.3965 55.1838 34.3965 55.1838 34.3965C55.1838 34.3965 55.1838 34.3965 55.1838 34.3965C55.1838 34.3965 55.1838 34.3965 55.1838 34.3965C55.1838 34.3965 55.1838 34.3965 55.1838 34.3965C55.1838 34.3965 55.1838 34.3965 55.1838 34.3965C55.1838 34.3965 55.1838 34.3965 55.1838 34.3965C55.1838 34.3965 55.1838 34.3965 55.1838 34.3965C55.1838 34.3965 55.1838 34.3965 55.1838 34.3965C55.1838 34.3965 55.1838 34.3965 55.1838 34.3965C55.1838 34.3965 55.1838 34.3965 55.1838 34.3965C55.1838 34.3965 55.1838 34.3965 55.1838 34.3965C55.1838 34.3965 55.1838 34.3965 55.1838 34.3965C55.1838 34.3965 55.1838 34.3965 55.1838 34.3965C55.1838 34.3965 55.1838 34.3965 55.1838 34.3965C55.1838 34.3965 55.1838 34.3965 55.1838 34.3965C55.1838 34.3965 55.1838 34.3965 55.1838 34.3965C55.1838 34.3965 55.1838 34.3965 55.1838 34.3965C55.1838 34.3965 55.1838 34.3965 55.1838 34.3965C55.1838 34.3965 55.1838 34.3965 55.1838 34.3965C55.1838 34.3965 55.1838 34.3965 55.1838 34.3965C55.1838 34.3965 55.1838 34.3965 55.1838 34.3965C55.1838 34.3965 55.1838 34.3965 55.1838 34.3965C55.1838 34.3965 55.1838 34.3965 55.1838 34.3965C55.1838 34.3965 55.1838 34.3965 55.1838 34.3965C55.1838 34.3965 55.1838 34.3965 55.1838 34.3965C55.1838 34.3965 55.1838 34.3965 55.1838 34.3965C55.1838 34.3965 55.1838 34.3965 55.1838 34.3965C55.1838 34.3965 55.1838 34.3965 55.1838 34.3965C55.1838 34.3965 55.1838 34.3965 55.1838 34.3965C55.1838 34.3965 55.1838 34.3965 55.1838 34.3965C55.1838 34.3965 55.1838 34.3965 55.1838 34.3965C55.1838 34.3965 55.1838 34.3965 55.1838 34.3965C55.1838 34.3965 55.1838 34.3965 55.1838 34.3965C55.1838 34.3965 55.1838 34.3965 55.1838 34.3965C55.1838 34.3965 55.1838 34.3965 55.1838 34.3965C55.1838 34.3965 55.1838 34.3965 55.1838 34.3965C55.1838 34.3965 55.1838 34.3965 55.1838 34.3965C55.1838 34.3965 55.1838 34.3965 55.1838 34.3965C55.1838 34.3965 55.1838 34.3965 55.1838 34.3965C55.1838 34.3965 55.1838 34.3965 55.1838 34.3965C55.1838 34.3965 55.1838 34.3965 55.1838 34.3965C55.1838 34.3965 55.1838 34.3965 55.1838 34.3965C55.1838 34.3965 55.1838 34.3965 55.1838 34.3965C55.1838 34.3965 55.1838 34.3965 55.1838 34.3965C55.1838 34.3965 55.1838 34.3965 55.1838 34.3965C55.1838 34.3965 55.1838 34.3965 55.1838 34.3965C55.1838 34.3965 55.1838 34.3965 55.1838 34.3965C55.1838 34.3965 55.1838 34.3965 55.1838 34.3965C55.1838 34.3965 55.1838 34.3965 55.1838 34.3965C55.1838 34.3965 55.1838 34.3965 55.1838 34.3965C55.1838 34.3965 55.1838 34.3965 55.1838 34.3965C55.1838 34.3965 55.1838 34.3965 55.1838 34.3965C55.1838 34.3965 55.1838 34.3965 55.1838 34.3965C55.1838 34.3965 55.1838 34.3965 55.1838 34.3965C55.1838 34.3965 55.1838 34.3965 55.1838 34.3965C55.1838 34.3965 55.1838 34.3965 55.1838 34.3965C55.1838 34.3965 55.1838 34.3965 55.1838 34.3965C55.1838 34.3965 55.1838 34.3965 55.1838 34.3965C55.1838 34.3965 55.1838 34.3965 55.1838 34.3965C55.1838 34.3965 55.1838 34.3965 55.1838 34.3965C55.1838 34.3965 55.1838 34.3965 55.1838 34.3965C55.1838 34.3965 55.1838 34.3965 55.1838 34.3965C55.1838 34.3965 55.1838 34.3965 55.1838 34.3965C55.1838 34.3965 55.1838 34.3965 55.1838 34.3965C55.1838 34.3965 55.1838 34.3965 55.1838 34.3965C55.1838 34.3965 55.1838 34.3965 55.1838 34.3965C55.1838 34.3965 55.1838 34.3965 55.1838 34.3965C55.1838 34.3965 55.1838 34.3965 55.1838 34.3965C55.1838 34.3965 55.1838 34.3965 55.1838 34.3965C55.1838 34.3965 55.1838 34.3965 55.1838 34.3965C55.1838 34.3965 55.1838 34.3965 55.1838 34.3965C55.1838 34.3965 55.1838 34.3965 55.1838 34.3965C55.1838 34.3965 55.1838 34.3965 55.1838 34.3965C55.1838 34.3965 55.1838 34.3965 55.1838 34.3965C55.1838 34.3965 55.1838 34.3965 55.1838 34.3965C55.1838 34.3965 55.1838 34.3965 55.1838 34.3965C55.1838 34.3965 55.1838 34.3965 55.1838 34.3965C55.1838 34.3965 55.1838 34.3965 55.1838 34.3965C55.1838 34.3965 55.1838 34.3965 55.1838 34.3965C55.1838 34.3965 55.1838 34.3965 55.1838 34.3965C55.1838 34.3965 55.1838 34.3965 55.1838 34.3965C55.1838 34.3965 55.1838 34.3965 55.1838 34.3965C55.1838 34.3965 55.1838 34.3965 55.1838 34.3965C55.1838 34.3965 55.1838 34.3965 55.1838 34.3965C55.1838 34.3965 55.1838 34.3965 55.1838 34.3965C55.1838 34.3965 55.1838 34.3965 55.1838 34.3965C55.1838 34.3965 55.1838 34.3965 55.1838 34.3965C55.1838 34.3965 55.1838 34.3965 55.1838 34.3965C55.1838 34.3965 55.1838 34.3965 55.1838 34.3965C55.1838 34.3965 55.1838 34.3965 55.1838 34.3965C55.1838 34.3965 55.1838 34.3965 55.1838 34.3965C55.1838 34.3965 55.1838 34.3965 55.1838 34.3965C55.1838 34.3965 55.1838 34.3965 55.1838 34.3965C55.1838 34.3965 55.1838 34.3965 55.1838 34.3965C55.1838 34.3965 55.1838 34.3965 55.1838 34.3965C55.1838 34.3965 55.1838 34.3965 55.1838 34.3965C55.1838 34.3965 55.1838 34.3965 55.1838 34.3965C55.1838 34.3965 55.1838 34.3965 55.1838 34.3965C55.1838 34.3965 55.1838 34.3965 55.1838 34.3965C55.1838 34.3965 55.1838 34.3965 55.1838 34.3965C55.1838 34.3965 55.1838 34.3965 55.1838 34.3965C55.1838 34.3965 55.1838 34.3965 55.1838 34.3965C55.1838 34.3965 55.1838 34.3965 55.1838 34.3965C55.1838 34.3965 55.1838 34.3965 55.1838 34.3965C55.1838 34.3965 55.1838 34.3965 55.1838 34.3965C55.1838 34.3965 55.1838 34.3965 55.1838 34.3965C55.1838 34.3965 55.1838 34.3965 55.1838 34.3965C55.1838 34.3965 55.1838 34.3965 55.1838 34.3965C55.1838 34.3965 55.1838 34.3965 55.1838 34.3965C55.1838 34.3965 55.1838 34.3965 55.1838 34.3965C55.1838 34.3965 55.1838 34.3965 55.1838 34.3965C55.1838 34.3965 55.1838 34.3965 55.1838 34.3965C55.1838 34.3965 55.1838 34.3965 55.1838 34.3965C55.1838 34.3965 55.1838 34.3965 55.1837 34.3965C55.1837 34.3965 55.1837 34.3965 55.1837 34.3965C55.1837 34.3965 55.1837 34.3965 55.1837 34.3965C55.1837 34.3965 55.1837 34.3965 55.1837 34.3965C55.1837 34.3965 55.1837 34.3965 55.1837 34.3965C55.1837 34.3965 55.1837 34.3965 55.1837 34.3965C55.1837 34.3965 55.1837 34.3965 55.1837 34.3965C55.1837 34.3965 55.1837 34.3965 55.1837 34.3965C55.1837 34.3965 55.1837 34.3965 55.1837 34.3965C55.1837 34.3965 55.1837 34.3965 55.1837 34.3965C55.1837 34.3965 55.1837 34.3965 55.1837 34.3965C55.1837 34.3965 55.1837 34.3965 55.1837 34.3965C55.1837 34.3965 55.1837 34.3965 55.1837 34.3965C55.1837 34.3965 55.1837 34.3965 55.1837 34.3965C55.1837 34.3965 55.1837 34.3965 55.1837 34.3965C55.1837 34.3965 55.1837 34.3965 55.1837 34.3965C55.1837 34.3965 55.1837 34.3965 55.1837 34.3965C55.1837 34.3965 55.1837 34.3965 55.1837 34.3965C55.1837 34.3965 55.1837 34.3965 55.1837 34.3965C55.1837 34.3965 55.1837 34.3965 55.1837 34.3965C55.1837 34.3965 55.1837 34.3965 55.1837 34.3965C55.1837 34.3965 55.1837 34.3965 55.1837 34.3965C55.1837 34.3965 55.1837 34.3965 55.1837 34.3965C55.1837 34.3965 55.1837 34.3965 55.1837 34.3965C55.1837 34.3965 55.1837 34.3965 55.1837 34.3965C55.1837 34.3965 55.1837 34.3965 55.1837 34.3965C55.1837 34.3965 55.1837 34.3965 55.1837 34.3965C55.1837 34.3965 55.1837 34.3965 55.1837 34.3965C55.1837 34.3965 55.1837 34.3965 55.1837 34.3965C55.1837 34.3965 55.1837 34.3965 55.1837 34.3965C55.1837 34.3965 55.1837 34.3965 55.1837 34.3965C55.1837 34.3965 55.1837 34.3965 55.1837 34.3965C55.1837 34.3965 55.1837 34.3965 55.1837 34.3965C55.1837 34.3965 55.1837 34.3965 55.1837 34.3965C55.1837 34.3965 55.1837 34.3965 55.1837 34.3965C55.1837 34.3965 55.1837 34.3965 55.1837 34.3965C55.1837 34.3965 55.1837 34.3965 55.1837 34.3965C55.1837 34.3965 55.1837 34.3965 55.1837 34.3965C55.1837 34.3965 55.1837 34.3965 55.1837 34.3965C55.1837 34.3965 55.1837 34.3965 55.1837 34.3965C55.1837 34.3965 55.1837 34.3965 55.1837 34.3965C55.1837 34.3965 55.1837 34.3965 55.1837 34.3965C55.1837 34.3965 55.1837 34.3965 55.1837 34.3965C55.1837 34.3965 55.1837 34.3965 55.1837 34.3965C55.1837 34.3965 55.1837 34.3965 55.1837 34.3965C55.1837 34.3965 55.1837 34.3965 55.1837 34.3965C55.1837 34.3965 55.1837 34.3965 55.1837 34.3965C55.1837 34.3965 55.1837 34.3965 55.1837 34.3965C55.1837 34.3965 55.1837 34.3965 55.1837 34.3965C55.1837 34.3965 55.1837 34.3965 55.1837 34.3965C55.1837 34.3965 55.1837 34.3965 55.1837 34.3965C55.1837 34.3965 55.1837 34.3965 55.1837 34.3965C55.1837 34.3965 55.1837 34.3965 55.1837 34.3965C55.1837 34.3965 55.1837 34.3965 55.1837 34.3965C55.1837 34.3965 55.1837 34.3965 55.1837 34.3965C55.1837 34.3965 55.1837 34.3965 55.1837 34.3965C55.1837 34.3965 55.1837 34.3965 55.1837 34.3965C55.1837 34.3965 55.1837 34.3965 55.1837 34.3965C55.1837 34.3965 55.1837 34.3965 55.1837 34.3965C55.1837 34.3965 55.1837 34.3965 55.1837 34.3965C55.1837 34.3965 55.1837 34.3965 55.1837 34.3965C55.1837 34.3965 55.1837 34.3965 55.1837 34.3965C55.1837 34.3965 55.1837 34.3965 55.1837 34.3965C55.1837 34.3965 55.1837 34.3965 55.1837 34.3965C55.1837 34.3965 55.1837 34.3965 55.1837 34.3965C55.1837 34.3965 55.1837 34.3965 55.1837 34.3965C55.1837 34.3965 55.1837 34.3965 55.1837 34.3965C55.1837 34.3965 55.1837 34.3965 55.1837 34.3965C55.1837 34.3965 55.1837 34.3965 55.1837 34.3965C55.1837 34.3965 55.1837 34.3965 55.1837 34.3965C55.1837 34.3965 55.1837 34.3965 55.1837 34.3965C55.1837 34.3965 55.1837 34.3965 55.1837 34.3965C55.1837 34.3965 55.1837 34.3965 55.1837 34.3965C55.1837 34.3965 55.1837 34.3965 55.1837 34.3965C55.1837 34.3965 55.1837 34.3965 55.1837 34.3965C55.1837 34.3965 55.1837 34.3965 55.1837 34.3965C55.1837 34.3965 55.1837 34.3965 55.1837 34.3965C55.1837 34.3965 55.1837 34.3965 55.1837 34.3965C55.1837 34.3965 55.1837 34.3965 55.1837 34.3965C55.1837 34.3965 55.1837 34.3965 55.1837 34.3965C55.1837 34.3965 55.1837 34.3965 55.1837 34.3965C55.1837 34.3965 55.1837 34.3965 55.1837 34.3965C55.1837 34.3965 55.1837 34.3965 55.1837 34.3965C55.1837 34.3965 55.1837 34.3965 55.1837 34.3965C55.1837 34.3965 55.1837 34.3965 55.1837 34.3965C55.1837 34.3965 55.1837 34.3965 55.1837 34.3965C55.1837 34.3965 55.1837 34.3965 55.1837 34.3965C55.1837 34.3965 55.1837 34.3965 55.1837 34.3965C55.1837 34.3965 55.1837 34.3965 55.1837 34.3965C55.1837 34.3965 55.1837 34.3965 55.1837 34.3965C55.1837 34.3965 55.1837 34.3965 55.1837 34.3965C55.1837 34.3965 55.1837 34.3965 55.1837 34.3965C55.1837 34.3965 55.1837 34.3965 55.1837 34.3965C55.1837 34.3965 55.1837 34.3965 55.1837 34.3965C55.1837 34.3965 55.1837 34.3965 55.1837 34.3965C55.1837 34.3965 55.1837 34.3965 55.1837 34.3965C55.1837 34.3965 55.1837 34.3965 55.1837 34.3965C55.1837 34.3965 55.1837 34.3965 55.1837 34.3965C55.1837 34.3965 55.1837 34.3965 55.1837 34.3965C55.1837 34.3965 55.1837 34.3965 55.1837 34.3965C55.1837 34.3965 55.1837 34.3965 55.1837 34.3965C55.1837 34.3965 55.1837 34.3965 55.1837 34.3965C55.1837 34.3965 55.1837 34.3965 55.1837 34.3965C55.1837 34.3965 55.1837 34.3965 55.1837 34.3965C55.1837 34.3965 55.1837 34.3965 55.1837 34.3965C55.1837 34.3965 55.1837 34.3965 55.1837 34.3965C55.1837 34.3965 55.1837 34.3965 55.1837 34.3965C55.1837 34.3965 55.1837 34.3965 55.1837 34.3965C55.1837 34.3965 55.1837 34.3965 55.1837 34.3965C55.1837 34.3965 55.1837 34.3965 55.1837 34.3965C55.1837 34.3965 55.1837 34.3965 55.1837 34.3965C55.1837 34.3965 55.1837 34.3965 55.1837 34.3965C55.1837 34.3965 55.1837 34.3965 55.1837 34.3965C55.1837 34.3965 55.1837 34.3965 55.1837 34.3965C55.1837 34.3965 55.1837 34.3965 55.1837 34.3965C55.1837 34.3965 55.1837 34.3965 55.1837 34.3965C55.1837 34.3965 55.1837 34.3965 55.1837 34.3965C55.1837 34.3965 55.1837 34.3965 55.1837 34.3965C55.1837 34.3965 55.1837 34.3965 55.1837 34.3965C55.1837 34.3965 55.1837 34.3965 55.1837 34.3965C55.1837 34.3965 55.1837 34.3965 55.1837 34.3965C55.1837 34.3965 55.1837 34.3965 55.1837 34.3965C55.1837 34.3965 55.1837 34.3965 55.1837 34.3965C55.1837 34.3965 55.1837 34.3965 55.1837 34.3965C55.1837 34.3965 55.1837 34.3965 55.1837 34.3965C55.1837 34.3965 55.1837 34.3965 55.1837 34.3965C55.1837 34.3965 55.1837 34.3965 55.1837 34.3965C55.1837 34.3965 55.1837 34.3965 55.1837 34.3965C55.1837 34.3965 55.1837 34.3965 55.1837 34.3965C55.1837 34.3965 55.1837 34.3965 55.1837 34.3965C55.1837 34.3965 55.1837 34.3965 55.1837 34.3965C55.1837 34.3965 55.1837 34.3965 55.1837 34.3965C55.1837 34.3965 55.1837 34.3965 55.1837 34.3965C55.1837 34.3965 55.1837 34.3965 55.1837 34.3965C55.1837 34.3965 55.1837 34.3965 55.1837 34.3965C55.1837 34.3965 55.1837 34.3965 55.1837 34.3965C55.1837 34.3965 55.1837 34.3965 55.1837 34.3965C55.1837 34.3965 55.1837 34.3965 55.1837 34.3965C55.1837 34.3965 55.1837 34.3965 55.1837 34.3965C55.1837 34.3965 55.1837 34.3965 55.1837 34.3965C55.1837 34.3965 55.1837 34.3965 55.1837 34.3965C55.1837 34.3965 55.1837 34.3965 55.1837 34.3965C55.1837 34.3965 55.1837 34.3965 55.1837 34.3965C55.1837 34.3965 55.1837 34.4965 55.1837 34.5965C55.1837 34.5965 55.1837 34.5965 55.1837 34.5965C55.1837 34.5965 55.1837 34.5965 55.1837 34.5965C55.1837 34.5965 55.1837 34.5965 55.1837 34.5965C55.1837 34.5965 55.1837 34.5965 55.1837 34.5965C55.1837 34.5965 55.1837 34.5965 55.1837 34.5965C55.1837 34.5965 55.1837 34.5965 55.1837 34.5965C55.1837 34.5965 55.1837 34.5965 55.1837 34.5965C55.1837 34.5965 55.1837 34.5965 55.1837 34.5965C55.1837 34.5965 55.1837 34.5965 55.1837 34.5965C55.1837 34.5965 55.1837 34.5965 55.1837 34.5965C55.1837 34.5965 55.1837 34.5965 55.1837 34.5965C55.1837 34.5965 55.1837 34.5965 55.1837 34.5965C55.1837 34.5965 55.1837 34.5965 55.1837 34.5965C55.1837 34.5965 55.1837 34.5965 55.1837 34.5965C55.1837 34.5965 55.1837 34.5965 55.1837 34.5965C55.1837 34.5965 55.1837 34.5965 55.1837 34.5965C55.1837 34.5965 55.1837 34.5965 55.1837 34.5965C55.1837 34.5965 55.1837 34.5965 55.1837 34.5965C55.1837 34.5965 55.1837 34.5965 55.1837 34.5965C55.1837 34.5965 55.1837 34.5965 55.1837 34.5965C55.1837 34.5965 55.1837 34.5965 55.1837 34.5965C55.1837 34.5965 55.1837 34.5965 55.1837 34.5965C55.1837 34.5965 55.1837 34.5965 55.1837 34.5965C55.1837 34.5965 55.1837 34.5965 55.1837 34.5965C55.1837 34.5965 55.1837 34.5965 55.1837 34.5965C55.1837 34.5965 55.1837 34.5965 55.1837 34.5965C55.1837 34.5965 55.1837 34.5965 55.1837 34.5965C55.1837 34.5965 55.1837 34.5965 55.1837 34.5965C55.1837 34.5965 55.1837 34.5965 55.1837 34.5965C55.1837 34.5965 55.1837 34.5965 55.1837 34.5965C55.1837 34.5965 55.1837 34.5965 55.1837 34.5965C55.1837 34.5965 55.1837 34.5965 55.1837 34.5965C55.1837 34.5965 55.1837 34.5965 55.1837 34.5965C55.1837 34.5965 55.1837 34.5965 55.1837 34.5965C55.1837 34.5965 55.1837 34.5965 55.1837 34.5965C55.1837 34.5965 55.1837 34.5965 55.1837 34.5965C55.1837 34.5965 55.1837 34.5965 55.1837 34.5965C55.1837 34.5965 55.1837 34.5965 55.1837 34.5965C55.1837 34.5965 55.1837 34.5965 55.1837 34.5965C55.1837 34.5965 55.1837 34.5965 55.1837 34.5965C55.1837 34.5965 55.1837 34.5965 55.1837 34.5965C55.1837 34.5965 55.1837 34.5965 55.1837 34.5965C55.1837 34.5965 55.1837 34.5965 55.1837 34.5965C55.1837 34.5965 55.1837 34.5965 55.1837 34.5965C55.1837 34.5965 55.1837 34.5965 55.1837 34.5965C55.1837 34.5965 55.1837 34.5965 55.1837 34.5965C55.1837 34.5965 55.1837 34.5965 55.1837 34.5965C55.1837 34.5965 55.1837 34.5965 55.1837 34.5965C55.1837 34.5965 55.1837 34.5965 55.1837 34.5965C55.1837 34.5965 55.1837 34.5965 55.1837 34.5965C55.1837 34.5965 55.1837 34.5965 55.1837 34.5965C55.1837 34.5965 55.1837 34.5965 55.1837 34.5965C55.1837 34.5965 55.1837 34.5965 55.1837 34.5965C55.1837 34.5965 55.1837 34.5965 55.1837 34.5965C55.1837 34.5965 55.1837 34.5965 55.1837 34.5965C55.1837 34.5965 55.1837 34.5965 55.1837 34.5965C55.1837 34.5965 55.1837 34.5965 55.1837 34.5965C55.1837 34.5965 55.1837 34.5965 55.1837 34.5965C55.1837 34.5965 55.1837 34.5965 55.1837 34.5965C55.1837 34.5965 55.1837 34.5965 55.1837 34.5965C55.1837 34.5965 55.1837 34.5965 55.1837 34.5965C55.1837 34.5965 55.1837 34.5965 55.1837 34.5965C55.1837 34.5965 55.1837 34.5965 55.1837 34.5965C55.1837 34.5965 55.1837 34.5965 55.1837 34.5965C55.1837 34.5965 55.1837 34.5965 55.1837 34.5965C55.1837 34.5965 55.1837 34.5965 55.1837 34.5965C55.1837 34.5965 55.1837 34.5965 55.1837 34.5965C55.1837 34.5965 55.1837 34.5965 55.1837 34.5965C55.1837 34.5965 55.1837 34.5965 55.1837 34.5965C55.1837 34.5965 55.1837 34.5965 55.1837 34.5965C55.1837 34.5965 55.1837 34.5965 55.1837 34.5965C55.1837 34.5965 55.1837 34.5965 55.1837 34.5965C55.1837 34.5965 55.1837 34.5965 55.1837 34.5965C55.1837 34.5965 55.1837 34.5965 55.1837 34.5965C55.1837 34.5965 55.1837 34.5965 55.1837 34.5965C55.1837 34.5965 55.1837 34.5965 55.1837 34.5965C55.1837 34.5965 55.1837 34.5965 55.1837 34.5965C55.1837 34.5965 55.1837 34.5965 55.1837 34.5965C55.1837 34.5965 55.1837 34.5965 55.1837 34.5965C55.1837 34.5965 55.1837 34.5965 55.1837 34.5965C55.1837 34.5965 55.1837 34.5965 55.1837 34.5965C55.1837 34.5965 55.1837 34.5965 55.1837 34.5965C55.1837 34.5965 55.1837 34.5965 55.1837 34.5965C55.1837 34.5965 55.1837 34.5965 55.1837 34.5965C55.1837 34.5965 55.1837 34.5965 55.1837 34.5965C55.1837 34.5965 55.1837 34.5965 55.1837 34.5965C55.1837 34.5965 55.1837 34.5965 55.1837 34.5965C55.1837 34.5965 55.1837 34.5965 55.1837 34.5965C55.1837 34.5965 55.1837 34.5965 55.1837 34.5965C55.1837 34.5965 55.1837 34.5965 55.1837 34.5965C55.1837 34.5965 55.1837 34.5965 55.1837 34.5965C55.1837 34.5965 55.1837 34.5965 55.1837 34.5965C55.1837 34.5965 55.1837 34.5965 55.1837 34.5965C55.1837 34.5965 55.1837 34.5965 55.1837 34.5965C55.1837 34.5965 55.1837 34.5965 55.1837 34.5965C55.1837 34.5965 55.1837 34.5965 55.1837 34.5965C55.1837 34.5965 55.1837 34.5965 55.1837 34.5965C55.1837 34.5965 55.1837 34.5965 55.1837 34.5965C55.1837 34.5965 55.1837 34.5965 55.1837 34.5965C55.1837 34.5965 55.1837 34.5965 55.1837 34.5965C55.1837 34.5965 55.1837 34.5965 55.1837 34.5965C55.1837 34.5965 55.1837 34.5965 55.1837 34.5965C55.1837 34.5965 55.1837 34.5965 55.1837 34.5965C55.1837 34.5965 55.1837 34.5965 55.1837 34.5965C55.1837 34.5965 55.1837 34.5965 55.1837 34.5965C55.1837 34.5965 55.1838 34.5965 55.1838 34.5965V34.3965ZM55.1837 34.3965L53.5484 34.3967L53.5485 34.5967L55.1838 34.5965L55.1837 34.3965ZM53.5484 34.3967C53.5781 34.3967 53.5954 34.4136 53.6005 34.42C53.6056 34.4262 53.6066 34.4306 53.607 34.4326L53.4112 34.4734C53.416 34.4964 53.4264 34.5226 53.4448 34.5455C53.4634 34.5685 53.4981 34.5967 53.5484 34.5967V34.3967ZM53.607 34.4325C53.154 32.2662 52.1384 30.2245 50.6699 28.5275L50.5187 28.6584C51.9652 30.33 52.9653 32.3409 53.4113 34.4735L53.607 34.4325ZM50.6699 28.5275C49.2506 26.8873 47.433 25.5977 45.4064 24.7877L45.3322 24.9734C47.3295 25.7717 49.1205 27.0426 50.5187 28.6584L50.6699 28.5275ZM45.4665 24.8569C45.138 23.505 44.4429 22.1055 43.069 21.053L42.9474 21.2117C44.2762 22.2297 44.9515 23.5846 45.2721 24.9042L45.4665 24.8569ZM43.069 21.053C41.7412 20.0357 40.404 19.8393 40.3408 19.8304L40.313 20.0285C40.3605 20.0352 41.6587 20.2245 42.9474 21.2117L43.069 21.053ZM40.3406 19.8304C40.1304 19.8012 39.9164 19.8621 39.7549 19.9987L39.884 20.1514C40.0016 20.0521 40.1584 20.007 40.3131 20.0285L40.3406 19.8304ZM39.7549 19.9987C39.5933 20.1354 39.4998 20.3342 39.4998 20.5442H39.6998C39.6998 20.3941 39.7666 20.2508 39.884 20.1514L39.7549 19.9987ZM39.4998 20.5442V23.8978H39.6998V20.5442H39.4998ZM39.5998 23.7978H37.2883V23.9978H39.5998V23.7978ZM37.3841 23.8691C36.8002 21.9155 34.9496 20.4857 32.7634 20.4857V20.6857C34.8614 20.6857 36.6339 22.0577 37.1925 23.9264L37.3841 23.8691ZM32.7634 20.4857C30.5308 20.4857 28.6471 21.9765 28.1061 23.994L28.2993 24.0458C28.8167 22.1163 30.6207 20.6857 32.7634 20.6857V20.4857ZM28.1896 23.9207C25.0174 24.342 22.0986 25.8405 19.9326 28.1707L20.0791 28.3068C22.2131 26.0111 25.0893 24.5342 28.2159 24.119L28.1896 23.9207ZM19.9326 28.1707C17.6548 30.6213 16.4 33.7942 16.4 37.1048H16.6C16.6 33.8453 17.8353 30.7209 20.0791 28.3068L19.9326 28.1707ZM16.4 37.1048C16.4 44.5106 20.3416 50.5315 21.5486 52.1996L21.7106 52.0823C20.5108 50.4242 16.6 44.4461 16.6 37.1048H16.4ZM21.5486 52.1995C21.9396 52.74 22.5789 53.0615 23.2582 53.0615V52.8615C22.6414 52.8615 22.0631 52.5694 21.7106 52.0823L21.5486 52.1995ZM23.2582 53.0615H25.9692V52.8615H23.2582V53.0615ZM25.9692 53.0615C27.1225 53.0615 28.065 52.1462 28.065 51.0156H27.865C27.865 52.031 27.0169 52.8615 25.9692 52.8615V53.0615ZM28.065 51.0156V50.156H27.865V51.0156H28.065ZM27.9502 50.2549C28.641 50.3587 29.3429 50.4118 30.0457 50.4118V50.2118C29.353 50.2118 28.661 50.1594 27.9798 50.0572L27.9502 50.2549ZM30.0457 50.4118H36.2028V50.2118H30.0457V50.4118ZM36.1028 50.3118V51.0156H36.3028V50.3118H36.1028ZM36.1028 51.0156C36.1028 52.1462 37.0453 53.0615 38.1986 53.0615V52.8615C37.151 52.8615 36.3028 52.031 36.3028 51.0156H36.1028ZM38.1986 53.0615H41.1765V52.8615H38.1986V53.0615ZM41.1765 53.0615C42.1566 53.0615 43.0193 52.3835 43.2256 51.4449L43.0302 51.4019C42.8448 52.2457 42.066 52.8615 41.1765 52.8615V53.0615ZM43.2256 51.4449L43.5524 49.9577L43.3571 49.9147L43.0302 51.4019L43.2256 51.4449ZM43.4779 50.0335C47.6945 49.0323 51.0856 46.1479 52.7549 42.4036L52.5722 42.3222C50.9282 46.0097 47.5875 48.8522 43.4317 49.8389L43.4779 50.0335ZM52.6635 42.4629H55.1837V42.2629H52.6635V42.4629ZM55.1837 42.4629C55.9624 42.4629 56.6 41.8448 56.6 41.0795H56.4C56.4 41.7296 55.8567 42.2629 55.1837 42.2629V42.4629ZM56.6 41.0795V35.7801H56.4V41.0795H56.6ZM56.6 35.7801C56.6 35.4097 56.452 35.0617 56.1842 34.8007L56.0446 34.9439C56.2743 35.1678 56.4 35.4644 56.4 35.7801H56.6ZM32.7633 21.9278C34.607 21.9278 36.1027 23.3898 36.1027 25.1813H36.3027C36.3027 23.2746 34.7127 21.7278 32.7633 21.7278V21.9278ZM36.1027 25.1813C36.1027 25.6396 36.0021 26.0912 35.8123 26.506L35.9942 26.5892C36.1957 26.1488 36.3027 25.6689 36.3027 25.1813H36.1027ZM35.9033 26.4476H29.6232V26.6476H35.9033V26.4476ZM29.7141 26.506C29.5244 26.091 29.4237 25.6396 29.4237 25.1813H29.2237C29.2237 25.6689 29.3309 26.1487 29.5323 26.5891L29.7141 26.506ZM29.4237 25.1813C29.4237 23.3897 30.9195 21.9278 32.7633 21.9278V21.7278C30.8139 21.7278 29.2237 23.2745 29.2237 25.1813H29.4237ZM55.1261 41.0793C55.1261 41.0447 55.1542 41.0208 55.1836 41.0208V41.2208C55.26 41.2208 55.3261 41.1597 55.3261 41.0793H55.1261ZM55.1836 41.0208H53.1423V41.2208H55.1836V41.0208ZM53.2374 41.1519C53.587 40.0846 53.8022 38.9621 53.8638 37.8047L53.664 37.7941C53.6034 38.9336 53.3916 40.0387 53.0473 41.0896L53.2374 41.1519ZM53.8638 37.8047C53.8851 37.4046 53.57 37.0676 53.1658 37.0472L53.1557 37.2469C53.4542 37.262 53.6793 37.5092 53.664 37.794L53.8638 37.8047ZM53.1657 37.0472C52.7619 37.0272 52.4131 37.3297 52.3919 37.7298L52.5916 37.7404C52.6067 37.4553 52.857 37.2321 53.1558 37.2469L53.1657 37.0472ZM52.3919 37.7298C52.1244 42.7581 48.6138 47.0538 43.7269 48.4747L43.7828 48.6667C48.7481 47.223 52.3194 42.8569 52.5916 37.7404L52.3919 37.7298ZM43.8525 48.5921L44.7424 44.5432L44.5471 44.5003L43.6572 48.5492L43.8525 48.5921ZM44.7424 44.5432C44.8286 44.1514 44.5721 43.7693 44.1758 43.6865L44.135 43.8823C44.4267 43.9432 44.6084 44.2214 44.5471 44.5003L44.7424 44.5432ZM44.1759 43.6866C43.7805 43.6037 43.3874 43.8491 43.3015 44.2401L43.4968 44.283C43.5583 44.0032 43.8428 43.8211 44.1349 43.8823L44.1759 43.6866ZM43.3015 44.2401L41.7846 51.1416L41.9799 51.1845L43.4968 44.283L43.3015 44.2401ZM41.7846 51.1416C41.7242 51.4165 41.4692 51.6194 41.1765 51.6194V51.8194C41.5598 51.8194 41.8986 51.5543 41.9799 51.1845L41.7846 51.1416ZM41.1765 51.6194H38.1984V51.8194H41.1765V51.6194ZM38.1984 51.6194C37.8532 51.6194 37.5766 51.3461 37.5766 51.0156H37.3766C37.3766 51.4613 37.7476 51.8194 38.1984 51.8194V51.6194ZM37.5766 51.0156V48.3659H37.3766V51.0156H37.5766ZM37.5766 48.3659C37.5766 47.9652 37.2442 47.6448 36.8396 47.6448V47.8448C37.1386 47.8448 37.3766 48.0805 37.3766 48.3659H37.5766ZM36.8396 47.6448C36.435 47.6448 36.1027 47.9652 36.1027 48.3659H36.3027C36.3027 48.0805 36.5406 47.8448 36.8396 47.8448V47.6448ZM36.1027 48.3659V49.0697H36.3027V48.3659H36.1027ZM36.2027 48.9697H30.0455V49.1697H36.2027V48.9697ZM30.0455 48.9697C29.3523 48.9697 28.6602 48.9116 27.9812 48.7987L27.9484 48.996C28.6381 49.1106 29.3412 49.1697 30.0455 49.1697V48.9697ZM28.0648 48.8974V44.3914H27.8648V48.8974H28.0648ZM28.0648 44.3914C28.0648 43.9908 27.7325 43.6704 27.3279 43.6704V43.8704C27.6269 43.8704 27.8648 44.106 27.8648 44.3914H28.0648ZM27.3279 43.6704C26.9233 43.6704 26.5909 43.9908 26.5909 44.3914H26.7909C26.7909 44.106 27.0289 43.8704 27.3279 43.8704V43.6704ZM26.5909 44.3914V51.0156H26.7909V44.3914H26.5909ZM26.5909 51.0156C26.5909 51.3461 26.3143 51.6195 25.9691 51.6195V51.8195C26.4199 51.8195 26.7909 51.4613 26.7909 51.0156H26.5909ZM25.9691 51.6195H23.2582V51.8195H25.9691V51.6195ZM23.2582 51.6195C23.051 51.6195 22.8674 51.5266 22.7516 51.3664L22.5895 51.4836C22.7443 51.6977 22.9892 51.8195 23.2582 51.8195V51.6195ZM22.7516 51.3664C21.6064 49.7836 17.8739 44.0804 17.8739 37.1048H17.6739C17.6739 44.145 21.4373 49.8911 22.5895 51.4836L22.7516 51.3664ZM17.8739 37.1048C17.8739 34.1541 18.992 31.3259 21.023 29.1409L20.8765 29.0047C18.8116 31.2263 17.6739 34.103 17.6739 37.1048H17.8739ZM21.023 29.1409C22.8818 27.141 25.3622 25.8277 28.0676 25.3964L28.0361 25.1989C25.2872 25.6372 22.7661 26.9717 20.8765 29.0047L21.023 29.1409ZM27.9519 25.3002C27.9632 25.7353 28.0363 26.1654 28.1676 26.5778L28.3582 26.5171C28.2326 26.1226 28.1626 25.7112 28.1518 25.2951L27.9519 25.3002ZM28.2629 26.4474H28.0074V26.6474H28.2629V26.4474ZM28.0074 26.4474C27.6028 26.4474 27.2705 26.7678 27.2705 27.1684H27.4705C27.4705 26.883 27.7085 26.6474 28.0074 26.6474V26.4474ZM27.2705 27.1684C27.2705 27.569 27.6028 27.8895 28.0074 27.8895V27.6895C27.7085 27.6895 27.4705 27.4538 27.4705 27.1684H27.2705ZM28.0074 27.8895H37.5191V27.6895H28.0074V27.8895ZM37.5191 27.8895C37.9238 27.8895 38.2561 27.569 38.2561 27.1684H38.0561C38.0561 27.4538 37.8181 27.6895 37.5191 27.6895V27.8895ZM38.2561 27.1684C38.2561 26.7678 37.9238 26.4474 37.5191 26.4474V26.6474C37.8181 26.6474 38.0561 26.883 38.0561 27.1684H38.2561ZM37.5191 26.4474H37.2636V26.6474H37.5191V26.4474ZM37.3589 26.5778C37.5022 26.1279 37.5766 25.6569 37.5766 25.1812H37.3766C37.3766 25.636 37.3055 26.0865 37.1683 26.5171L37.3589 26.5778ZM37.5766 25.1812C37.5766 25.1722 37.5763 25.1636 37.5761 25.1568C37.5758 25.1494 37.5756 25.144 37.5755 25.1386L37.3756 25.1409C37.3756 25.1494 37.376 25.1577 37.3762 25.1641C37.3765 25.171 37.3766 25.1763 37.3766 25.1812H37.5766ZM37.4755 25.2398H39.5998V25.0398H37.4755V25.2398ZM39.4998 25.1398V26.506H39.6998V25.1398H39.4998ZM39.4998 26.506C39.4998 26.9066 39.8321 27.227 40.2367 27.227V27.027C39.9377 27.027 39.6998 26.7914 39.6998 26.506H39.4998ZM40.2367 27.227C40.6413 27.227 40.9737 26.9066 40.9737 26.506H40.7737C40.7737 26.7914 40.5357 27.027 40.2367 27.027V27.227ZM40.9737 26.506V21.3597H40.7737V26.506H40.9737ZM40.8391 21.4535C41.4318 21.6722 42.2849 22.1172 42.9898 22.9964C43.6936 23.8742 44.2556 25.1922 44.2556 27.1685H44.4556C44.4556 25.1515 43.8809 23.7881 43.1459 22.8713C42.4119 21.9558 41.5241 21.493 40.9083 21.2658L40.8391 21.4535ZM44.2556 27.1685C44.2556 27.5691 44.588 27.8895 44.9926 27.8895V27.6895C44.6936 27.6895 44.4556 27.4539 44.4556 27.1685H44.2556ZM44.9926 27.8895C45.3972 27.8895 45.7295 27.5691 45.7295 27.1685H45.5295C45.5295 27.4539 45.2915 27.6895 44.9926 27.6895V27.8895ZM45.7295 27.1685C45.7295 26.903 45.7197 26.6226 45.6971 26.3328L45.4977 26.3483C45.5199 26.6327 45.5295 26.9079 45.5295 27.1685H45.7295ZM45.5545 26.4309C47.0787 27.1547 48.4459 28.1893 49.5451 29.4595L49.6963 29.3286C48.5788 28.0371 47.1891 26.9858 45.6403 26.2502L45.5545 26.4309ZM49.5451 29.4595C50.8544 30.9726 51.7596 32.7923 52.1631 34.7216L52.3588 34.6807C51.9483 32.7176 51.0276 30.867 49.6963 29.3286L49.5451 29.4595ZM52.1631 34.7216C52.2986 35.37 52.8816 35.8389 53.5487 35.8388L53.5487 35.6388C52.9748 35.6389 52.4747 35.2351 52.3588 34.6807L52.1631 34.7216ZM53.5487 35.8388L55.1838 35.8387L55.1837 35.6387L53.5487 35.6388L53.5487 35.8388ZM55.1838 35.8387C55.1844 35.8387 55.1821 35.8387 55.1793 35.8385C55.1764 35.8382 55.1728 35.8376 55.1688 35.8365C55.1601 35.8341 55.1511 35.8294 55.144 35.8224L55.2836 35.6792C55.2424 35.6391 55.1955 35.6387 55.1838 35.6387V35.8387ZM55.1439 35.8224C55.1368 35.8155 55.1316 35.8063 55.1287 35.7967C55.1274 35.7922 55.1268 35.7882 55.1264 35.785C55.1261 35.7819 55.1262 35.7794 55.1262 35.7801H55.3262C55.3262 35.767 55.3253 35.7199 55.2836 35.6792L55.1439 35.8224ZM55.1262 35.7801L55.1261 41.0793L55.3261 41.0793L55.3262 35.7801L55.1262 35.7801ZM49.7592 34.865C49.3481 33.7897 48.2627 33.0718 47.0621 33.0718V33.2718C48.1853 33.2718 49.1928 33.9435 49.5724 34.9364L49.7592 34.865ZM47.0621 33.0718C45.8614 33.0718 44.7762 33.7896 44.3649 34.865L44.5517 34.9364C44.9315 33.9434 45.9389 33.2718 47.0621 33.2718V33.0718ZM44.3649 34.865C44.2214 35.2403 44.418 35.6553 44.7984 35.7935L44.8667 35.6056C44.5879 35.5042 44.4494 35.2039 44.5517 34.9364L44.3649 34.865ZM44.7984 35.7935C45.1777 35.9316 45.6024 35.7443 45.7453 35.3703L45.5585 35.2989C45.4557 35.5677 45.1468 35.7075 44.8668 35.6056L44.7984 35.7935ZM45.7453 35.3703C45.9397 34.8619 46.4667 34.5138 47.062 34.5138V34.3138C46.3918 34.3138 45.7853 34.7058 45.5585 35.2989L45.7453 35.3703ZM47.062 34.5138C47.6574 34.5138 48.1844 34.8619 48.3788 35.3703L48.5656 35.2989C48.3389 34.7058 47.7323 34.3138 47.062 34.3138V34.5138ZM48.3788 35.3703C48.49 35.6613 48.7719 35.8388 49.0691 35.8388V35.6388C48.8495 35.6388 48.6454 35.5077 48.5656 35.2989L48.3788 35.3703ZM49.0691 35.8388C49.1545 35.8388 49.2412 35.8242 49.3257 35.7935L49.2573 35.6056C49.1952 35.6282 49.1316 35.6388 49.0691 35.6388V35.8388ZM49.3256 35.7935C49.706 35.6552 49.9027 35.2402 49.7592 34.865L49.5724 34.9364C49.6746 35.2038 49.5362 35.5042 49.2573 35.6056L49.3256 35.7935ZM33.5002 36.6314V33.4578H33.3002V36.6314H33.5002ZM33.3884 33.5571C34.0022 33.6298 34.5189 33.8044 34.8791 34.0195C35.2468 34.2391 35.4233 34.4824 35.4233 34.683H35.6233C35.6233 34.3709 35.3631 34.0756 34.9816 33.8478C34.5926 33.6155 34.0477 33.4338 33.412 33.3585L33.3884 33.5571ZM35.4233 34.683C35.4233 35.0836 35.7556 35.404 36.1603 35.404V35.204C35.8613 35.204 35.6233 34.9684 35.6233 34.683H35.4233ZM36.1603 35.404C36.5649 35.404 36.8972 35.0836 36.8972 34.683H36.6972C36.6972 34.9684 36.4592 35.204 36.1603 35.204V35.404ZM36.8972 34.683C36.8972 34.0066 36.5111 33.407 35.8881 32.9575C35.2652 32.5081 34.3979 32.2021 33.4096 32.1086L33.3908 32.3077C34.3515 32.3986 35.1828 32.6953 35.7711 33.1197C36.3594 33.5442 36.6972 34.0897 36.6972 34.683H36.8972ZM33.5002 32.2082V32.1368H33.3002V32.2082H33.5002ZM33.5002 32.1368C33.5002 31.7362 33.1679 31.4158 32.7632 31.4158V31.6158C33.0622 31.6158 33.3002 31.8514 33.3002 32.1368H33.5002ZM32.7632 31.4158C32.3586 31.4158 32.0263 31.7362 32.0263 32.1368H32.2263C32.2263 31.8514 32.4643 31.6158 32.7632 31.6158V31.4158ZM32.0263 32.1368V32.2082H32.2263V32.1368H32.0263ZM32.1169 32.1086C31.1286 32.2021 30.2613 32.5081 29.6384 32.9575C29.0154 33.407 28.6292 34.0066 28.6292 34.683H28.8292C28.8292 34.0897 29.1671 33.5442 29.7554 33.1197C30.3437 32.6953 31.1749 32.3986 32.1357 32.3077L32.1169 32.1086ZM28.6292 34.683C28.6292 35.6313 29.1129 36.2761 29.7868 36.7332C30.4561 37.1871 31.3199 37.4611 32.0998 37.675L32.1527 37.4821C31.3732 37.2683 30.5384 37.0012 29.8991 36.5677C29.2644 36.1372 28.8292 35.5481 28.8292 34.683H28.6292ZM32.0263 37.5785V40.7521H32.2263V37.5785H32.0263ZM32.138 40.6528C31.5243 40.5801 31.0076 40.4055 30.6474 40.1904C30.2797 39.9708 30.1032 39.7275 30.1032 39.5269H29.9032C29.9032 39.839 30.1634 40.1343 30.5449 40.3621C30.9339 40.5944 31.4787 40.7761 32.1145 40.8514L32.138 40.6528ZM30.1032 39.5269C30.1032 39.1263 29.7708 38.8059 29.3662 38.8059V39.0059C29.6652 39.0059 29.9032 39.2415 29.9032 39.5269H30.1032ZM29.3662 38.8059C28.9616 38.8059 28.6292 39.1263 28.6292 39.5269H28.8292C28.8292 39.2415 29.0672 39.0059 29.3662 39.0059V38.8059ZM28.6292 39.5269C28.6292 40.2033 29.0154 40.8029 29.6384 41.2524C30.2613 41.7018 31.1286 42.0078 32.1169 42.1013L32.1357 41.9022C31.1749 41.8113 30.3437 41.5146 29.7554 41.0902C29.1671 40.6657 28.8292 40.1202 28.8292 39.5269H28.6292ZM32.0263 42.0017V42.0731H32.2263V42.0017H32.0263ZM32.0263 42.0731C32.0263 42.4737 32.3586 42.7941 32.7632 42.7941V42.5941C32.4643 42.5941 32.2263 42.3585 32.2263 42.0731H32.0263ZM32.7632 42.7941C33.1679 42.7941 33.5002 42.4737 33.5002 42.0731H33.3002C33.3002 42.3585 33.0622 42.5941 32.7632 42.5941V42.7941ZM33.5002 42.0731V42.0017H33.3002V42.0731H33.5002ZM33.4096 42.1013C34.3979 42.0078 35.2652 41.7018 35.8881 41.2524C36.5111 40.8029 36.8972 40.2033 36.8972 39.5269H36.6972C36.6972 40.1202 36.3594 40.6657 35.7711 41.0902C35.1828 41.5146 34.3515 41.8113 33.3908 41.9022L33.4096 42.1013ZM36.8972 39.5269C36.8972 38.5786 36.4136 37.9337 35.7396 37.4767C35.0703 37.0228 34.2066 36.7488 33.4266 36.5349L33.3737 36.7278C34.1533 36.9416 34.9881 37.2086 35.6274 37.6422C36.2621 38.0726 36.6972 38.6618 36.6972 39.5269H36.8972ZM32.1555 36.1826C31.3731 35.9433 30.8567 35.7185 30.5369 35.4758C30.2237 35.2383 30.1032 34.9874 30.1032 34.683H29.9032C29.9032 35.058 30.0597 35.3649 30.416 35.6352C30.7655 35.9003 31.3107 36.1334 32.097 36.3739L32.1555 36.1826ZM30.1032 34.683C30.1032 34.4824 30.2797 34.2391 30.6474 34.0195C31.0076 33.8044 31.5243 33.6298 32.138 33.5571L32.1145 33.3585C31.4787 33.4338 30.9339 33.6155 30.5449 33.8478C30.1634 34.0756 29.9032 34.3709 29.9032 34.683H30.1032ZM32.0263 33.4578V36.2783H32.2263V33.4578H32.0263ZM33.5002 40.7522V37.9317H33.3002V40.7522H33.5002ZM33.3709 38.0273C34.1534 38.2666 34.6698 38.4915 34.9896 38.7341C35.3027 38.9717 35.4233 39.2225 35.4233 39.527H35.6233C35.6233 39.152 35.4667 38.8451 35.1105 38.5748C34.7609 38.3096 34.2157 38.0765 33.4294 37.8361L33.3709 38.0273ZM35.4233 39.527C35.4233 39.7276 35.2467 39.9709 34.879 40.1905C34.5188 40.4056 34.0021 40.5802 33.3884 40.6529L33.412 40.8515C34.0477 40.7762 34.5926 40.5945 34.9816 40.3622C35.363 40.1344 35.6233 39.8391 35.6233 39.527H35.4233Z" fill="white" mask="url(#path-1-outside-1_118837_2)"/>
</svg>
